<?xml version="1.0" encoding="utf-8"?>
<!-- Generator: Adobe Illustrator 24.0.0, SVG Export Plug-In . SVG Version: 6.00 Build 0)  -->
<svg version="1.1" id="Layer_1" xmlns="http://www.w3.org/2000/svg" xmlns:xlink="http://www.w3.org/1999/xlink" x="0px" y="0px"
	 viewBox="0 0 1126 191.1" style="enable-background:new 0 0 1126 191.1;" xml:space="preserve">
<style type="text/css">
	.st0{fill:#FEFEFE;}
	.st1{fill:#131880;}
	.st2{fill:#10167F;}
	.st3{fill:#1E2286;}
	.st4{fill:#141981;}
	.st5{fill:#FDFDFE;}
	.st6{fill:#F9F9FB;}
	.st7{fill:#0E137D;}
	.st8{fill:#0D127D;}
	.st9{fill:#0D137D;}
	.st10{fill:url(#SVGID_1_);}
	.st11{fill:url(#SVGID_2_);}
	.st12{fill:#FFFFFF;}
	.st13{opacity:0.2;fill:#FFFFFF;enable-background:new    ;}
	.st14{fill-rule:evenodd;clip-rule:evenodd;fill:#FF0000;}
	.st15{fill:#0088C5;}
	.st16{fill:#E52534;}
	.st17{fill:#D3D3D3;}
</style>
<title>Asset 2</title>
<g>
	<g>
		<path class="st0" d="M938.4,173.9H754.9c-3.4,0-4.1-0.7-4.1-4.6c0.2-31.3,0.2-62.5,0.1-93.8c-0.1-2.8,0.5-3.4,3-3.4
			c123,0.1,246,0.1,369,0c2.5,0,3.1,0.6,3.1,3.4c-0.1,31.5-0.1,62.9,0,94.4c0,3.3-0.6,4-3.6,4H938.4z"/>
		<path class="st1" d="M809.5,154.1c0,2.6-1,4-3.5,3.7s-1.9-2.4-1.9-3.9v-35.2c0.2-2.2,1.7-2.2,3.4-2.3s1.9,1.3,1.9,2.6v12
			c4.5-3.6,9.1-5.3,14.4-3.8c3.3,0.9,6.2,3,8.1,5.8c4.2,6.2,3.3,15.8-1.8,21S817.4,159.5,809.5,154.1z"/>
		<path class="st1" d="M1058.7,144.2h-8.9c-2.5-0.1-2.6,0.9-1.8,2.8c1.7,4.5,6.7,7.1,12.2,6c1.9-0.3,3.8-1,5.7-1.5s2.4,0,2.8,1.4
			c0.4,1.4,0.4,2.2-0.9,3c-5,3.3-16,2.5-20.8-1.6c-4.8-4.1-6.8-12.8-3.8-19.3c3-6.5,10.3-10,17.3-8.2c6.3,1.4,10.4,7.4,10.4,14.4
			c0,2.4-0.8,3.2-3.2,3.1C1065.3,144.2,1061.7,144.2,1058.7,144.2z"/>
		<path class="st1" d="M913.6,142.1c0-9,6.4-15.6,15.4-15.6s15.9,6.5,15.8,15.7c0.2,8.4-6.4,15.5-14.9,15.7c-0.3,0-0.6,0-0.9,0
			C920.2,157.9,913.6,151.1,913.6,142.1z"/>
		<path class="st1" d="M869,144.8c-1,8-7.5,13.4-15.8,13.1c-7.9-0.1-14.4-6.3-14.9-14.2c-0.5-8.9,4.6-15.9,12.6-17.1
			C862.5,125,871.3,133.9,869,144.8c-0.5-0.8-0.6-1.7-0.4-2.6C868.7,142.6,868.1,143.8,869,144.8z"/>
		<path class="st1" d="M884.2,145.9l-6.4,9.3c-0.8,1.2-1.5,2.5-3.1,2.7s-2.9,0.2-3.7-0.9s0.8-1.8,1.3-2.6c2.5-3.5,5-7,7.6-10.4
			c1.2-1.5,1.1-2.6,0-4.1c-2.5-3.3-4.7-6.9-7.3-10.2c-2.6-3.3-0.7-2.8,1.5-3c1.6-0.3,3.2,0.4,4.1,1.8c1.4,2,2.9,4,4.2,6.1
			c1.3,2.1,2.6,3,4.2,0.2c1.4-2.1,2.8-4.1,4.4-6.1c0.7-1.3,2-2.1,3.5-2.1c1,0.1,2.3-0.1,2.8,1s-0.6,1.6-1.1,2.3
			c-2,2.9-4,5.8-6.2,8.5s-2.3,4.2-0.2,6.7s4.7,6.6,7.1,9.8s0.5,2.8-1.6,3s-3.4-0.8-4.5-2.4C888.7,152.3,886.5,149.3,884.2,145.9z"/>
		<path class="st1" d="M977.5,145.4c0-2.9,0-5.8,0.1-8.6c0.1-2.8,0-3.5-2.6-3.2s-2.2-0.5-2.2-2s0.4-2.8,2.1-2.7s2.6-1.6,2.7-3.5
			c0.5-8.1,9.9-12.8,16.9-8.5c0.9,0.6,1.3,1.7,1,2.7c0,1-0.9,1.9-2,1.8c0,0-0.1,0-0.1,0c-1.2-0.1-2.4-0.3-3.5-0.6
			c-1.3-0.3-2.6-0.2-3.8,0.1c-3.2,1-3.5,3.7-3.3,6.4s2.6,1.2,4.1,1.5c1.3,0.1,2.6,0.1,3.9,0c1.5,0,2.6,0.2,2.5,2.1
			c-0.1,1.9-0.7,2.7-2.5,2.7h-2.4c-5.7,0-5.7,0-5.7,5.9v14.9c0.1,2.1-0.7,3-2.9,3.1s-2.3-1.5-2.3-3.2S977.5,148.4,977.5,145.4z"/>
		<path class="st1" d="M964.3,115.8l5.2,0.9c1.2,0.2,2,1.4,1.7,2.6c0,0.1-0.1,0.3-0.1,0.4c-0.2,1.1-1.3,1.9-2.4,1.7
			c-0.1,0-0.1,0-0.2,0c-1.4-0.2-2.8-0.6-4.3-0.7s-4.6,0.4-5.5,3.2s-0.4,4.9,3.5,4.9h4.3c1.4,0,2.4,0.3,2.4,1.9
			c0,1.6-0.3,2.6-1.9,2.9h-1.2c-7.4,0.5-7.4,0.5-7.4,8.1c0,4.1-0.1,8.1,0,12.2c0,2-0.3,3.5-2.9,3.6s-2.3-1.8-2.3-3.5v-17.6
			c0.1-1.8-0.2-3.1-2.5-2.8c-2.3,0.3-2.4-0.1-2.4-1.8c0-1.7,0.4-3,2.3-2.9c1.9,0.1,2.6-1.3,2.7-3.2
			C953.5,119.2,957,115.8,964.3,115.8z"/>
		<path class="st1" d="M1024.6,157.4c-7.4-1.4-12.2-7.4-12.2-15.4c0-8,5.2-14.1,12.5-15.3c3.6-0.6,7.4-0.2,10.8,1.1
			c1.4,0.5,2.7,1.1,2,3.1c-0.7,2-1.7,2.1-3.4,1.5l-2.2-0.7c-5.3-1.4-9.6-0.1-12.3,3.7c-2.7,4.1-2.7,9.5,0.1,13.6
			c2.7,3.8,6.9,5,12.2,3.6l3-0.8c1.4-0.3,2.2,0.4,2.6,1.7c0.5,1,0.1,2.2-0.9,2.7c-0.1,0.1-0.2,0.1-0.4,0.1
			C1032.5,157.6,1028.7,158.8,1024.6,157.4c1.6-1,3.3-0.3,4-0.4C1029.3,156.9,1026.1,156.3,1024.6,157.4z"/>
		<path class="st2" d="M1001.3,127.4c4.1-1.4,4.5-1.1,4.5,2.8c0.1,7.8,0.1,15.6,0,23.4c0,1,0.4,2.1-0.5,2.9
			c-4.4,0.6-4.5,0.6-4.4-3.3C1001.1,144.6,1000.4,136,1001.3,127.4z"/>
		<path class="st3" d="M1003,123.1c-2-0.3-3.3-1.5-3.2-3.6c0-1.7,1.4-3.1,3.1-3.1c0.2,0,0.4,0,0.6,0.1c1.6-0.1,3,1.2,3,2.8
			c0,0.2,0,0.4,0,0.5C1006.5,121.9,1005.1,123,1003,123.1z"/>
		<path class="st4" d="M1001.3,127.4c0,8.3,0.1,16.6-0.1,24.9c-0.1,3.2,0.7,4.7,4.1,4.2c-4.1,1.9-4.9,1.5-4.9-2.6V131
			C1000.5,129.8,999.9,128.4,1001.3,127.4z"/>
		<path class="st5" d="M809.4,142.2c0-7.2,3.2-10.8,9.6-10.8c5.8,0.1,10.1,4.7,10,11.1c-0.1,6.4-4.3,11-10.1,11
			S809.4,149.7,809.4,142.2z"/>
		<path class="st6" d="M1057.5,130.7c3.5,0.9,6.4,2.6,7.6,6.4c0.6,1.9,0.4,2.9-1.9,2.8h-13.6c-2.2,0.1-2.4-0.9-1.7-2.6
			c1.4-4,4.6-5.7,8.4-6.6C1056.7,130.1,1057.1,130.1,1057.5,130.7z"/>
		<path class="st7" d="M1059.8,157.1h-4.4C1056.7,156.4,1058.4,156.4,1059.8,157.1z"/>
		<path class="st8" d="M1057.5,130.7h-1.2l-0.9-0.4c0.9-0.7,2.1-0.7,3,0L1057.5,130.7z"/>
		<path class="st5" d="M919,142.1c0-6.5,4.3-11,10.3-10.9c6,0.1,10.2,4.6,10.1,11c-0.1,6.4-4.4,11-10.3,11S919,148.4,919,142.1z"/>
		<path class="st7" d="M930.6,157.1h-3.2C928.6,156,929.7,156.7,930.6,157.1z"/>
		<path class="st5" d="M843.6,142c0.1-6.4,4.3-10.9,10.3-10.8c6,0.1,10.3,4.7,10.2,11s-4.6,11-10.4,11S843.6,148.4,843.6,142z"/>
		<path class="st8" d="M869,144.8c-1.4-1.2-0.9-2.6-0.3-4L869,144.8z"/>
		<path class="st9" d="M855.7,156.9c-1.1,0.5-2.4,0.5-3.4-0.1C853.3,156.2,854.6,156.3,855.7,156.9z"/>
		<path class="st7" d="M1024.6,157.4c1.8-1.6,3.7-0.8,5.7-0.3L1024.6,157.4z"/>
		
			<linearGradient id="SVGID_1_" gradientUnits="userSpaceOnUse" x1="-109.5987" y1="8156.8779" x2="-109.5987" y2="8034.958" gradientTransform="matrix(0.65 0 0 0.65 1075.1097 -5175.7612)">
			<stop  offset="0" style="stop-color:#B00005"/>
			<stop  offset="0.25" style="stop-color:#B70007"/>
			<stop  offset="0.5" style="stop-color:#BE010A"/>
			<stop  offset="0.75" style="stop-color:#C6010D"/>
			<stop  offset="1" style="stop-color:#CD010F"/>
		</linearGradient>
		<path class="st10" d="M1120.2,20.8h-238v78.9h238c2.9,0.1,5.3-2.3,5.4-5.2c0,0,0-0.1,0-0.1V51.3l0,0V26.2
			C1125.6,23.2,1123.2,20.8,1120.2,20.8C1120.2,20.8,1120.2,20.8,1120.2,20.8z"/>
		
			<linearGradient id="SVGID_2_" gradientUnits="userSpaceOnUse" x1="-397.9064" y1="8034.7578" x2="-397.9064" y2="8156.8779" gradientTransform="matrix(0.65 0 0 0.65 1075.1097 -5175.7612)">
			<stop  offset="0" style="stop-color:#001455"/>
			<stop  offset="0.25" style="stop-color:#001150"/>
			<stop  offset="0.5" style="stop-color:#000E4B"/>
			<stop  offset="0.75" style="stop-color:#000B46"/>
			<stop  offset="1" style="stop-color:#000841"/>
		</linearGradient>
		<path class="st11" d="M882.2,20.8h-126c-3,0-5.4,2.4-5.4,5.4v68.2c0,2.9,2.4,5.3,5.3,5.3c0,0,0.1,0,0.1,0h126V60.9l0,0V20.8z"/>
		<path class="st12" d="M813.2,74.1c0,3.3-1.3,5.2-7.7,5.2l-2.3-0.2V35.3c0-3.4,1.1-6.8,7.6-6.8c0.8,0,1.6,0,2.4,0.2V74.1z
			 M799.9,67.4c0,6.2-4.1,10.7-12.2,11.5c-5.9,0.7-14.5-0.1-18.6-0.5c-0.2-0.7-0.3-1.5-0.3-2.2c0-5.4,2.9-6.6,5.7-6.6
			s7.3,0.5,10.6,0.5s4.8-1.2,4.8-2.4c0-1.2-1.5-2.2-4.3-2.8l-7.8-1.5c-6.5-1.2-9.9-5.7-9.9-10.4s4-10.6,12.1-11.5
			c5.8-0.4,11.7-0.2,17.5,0.6c0.2,0.7,0.2,1.4,0.2,2.1c0,5.3-2.8,6.5-5.6,6.5s-5.3-0.4-9-0.4s-5.4,1.1-5.4,2.3
			c0,1.2,1.5,1.9,3.9,2.4l7.4,1.3C796.6,57.7,799.9,62.1,799.9,67.4 M839.7,91.1c1.5,0.6,3.1,1,4.7,1c3.7,0,5.8-1.4,7.3-4.7
			l20.2-44.9c-1.3-0.6-2.7-1-4.2-1c-2.6,0-6.1,0.5-8.3,5.8l-6.5,15.3l-12.8-20.8c-1.4-0.3-2.8-0.5-4.3-0.6c-4.5,0-7.1,1.7-9.7,4.5
			l-12.4,13.6l10,15.7c1.7,2.9,4.9,4.6,8.2,4.4c2,0,4-0.3,5.8-1.1l-12-18.1l8.5-9.1l13.9,22"/>
		<path class="st12" d="M900.6,72.2c1.9,0,6.3,2,12.1,2s8.9-1.7,8.9-5.4c0-8.3-23.3-3.9-23.3-17.2c0-5,3.7-10.4,14.2-10.4
			c4.5,0,9.1,0.8,13.3,2.4c0.1,0.4,0.1,0.8,0.1,1.2c0,1.8-0.7,3.4-2.2,3.4s-5.3-1.8-11.2-1.8s-8.2,2.1-8.2,4.9
			c0,8.1,23.4,3.7,23.4,17.3c0,6-4.7,10.9-15.1,10.9c-4.9,0-9.7-0.9-14.2-2.6c-0.1-0.4-0.1-0.8-0.1-1.2
			C898.3,72.8,899.7,72.2,900.6,72.2z"/>
		<path class="st12" d="M953.5,41.2c-5.1-0.2-10,2.2-13,6.4V44c0-1.7-1.1-2.3-3.1-2.3c-0.9,0-1.9,0.1-2.8,0.4v49
			c0.9,0.2,1.8,0.3,2.7,0.3c2.1,0,3.2-0.6,3.2-2.6V73c0,0,3.8,6.4,12.9,6.4s17.7-7.4,17.7-19.1S961.4,41.2,953.5,41.2z M952.3,46.5
			c7.5,0,12.8,6.1,12.8,13.8s-4.5,13.9-13,13.9c-4.9-0.1-9.3-2.8-11.6-7.1V53.6C942.8,49.3,947.3,46.5,952.3,46.5z"/>
		<path class="st12" d="M995.9,41.2c-10.2,0-18.9,7.5-18.9,19.1s8.3,19.1,18.9,19.1s18.9-7.9,18.9-19.1S1006.4,41.2,995.9,41.2z
			 M995.9,46.5c7.5,0,12.8,5.9,12.8,13.7s-5.8,13.9-12.8,13.9s-12.8-5.4-12.8-13.9S988.9,46.5,995.9,46.5z"/>
		<path class="st12" d="M1080.8,72.2c1.9,0,6.3,2,12.1,2c5.8,0,8.9-1.7,8.9-5.4c0-8.3-23.3-3.9-23.3-17.2c0-5,3.7-10.4,14.3-10.4
			c4.5,0,9,0.8,13.2,2.4c0.1,0.4,0.1,0.8,0.1,1.2c0,1.8-0.7,3.4-2.2,3.4s-5.3-1.8-11.2-1.8s-8.1,2.1-8.1,4.9
			c0,8.1,23.3,3.7,23.3,17.3c0,6-4.7,10.9-15.1,10.9c-4.9,0-9.7-0.9-14.2-2.6c-0.1-0.4-0.1-0.8-0.1-1.2
			C1078.5,72.8,1079.9,72.2,1080.8,72.2z"/>
		<path class="st12" d="M1022.1,78.6V42.1c0.9-0.3,1.9-0.4,2.8-0.4c2.4,0,3.1,0.9,3.1,2.5v4.2c3-4.3,7.9-6.8,13.1-6.6
			c1,0,2,0.1,3,0.3c0.2,0.8,0.3,1.6,0.3,2.4c0,1.7-0.4,2.8-3.3,2.8c-6.2,0-10.6,2.8-13.1,8.1v21.3c0,1.4-1,2.2-3.1,2.2
			C1023.9,78.9,1023,78.8,1022.1,78.6z"/>
		<path class="st12" d="M1062,79.4c-7.9,0-11.7-4.8-11.7-10.9V35.3c0-1.3,0.5-2.4,3.2-2.4c1,0,1.9,0.2,2.8,0.5v8.7h14.6
			c0.1,0.8,0.2,1.5,0.2,2.3c0,2.4-1,2.9-2.2,2.9h-12.6v20.9c0,3.3,1.8,5.8,6.3,5.8s6.1-1.5,7.7-1.5c1.6,0,2.5,2.4,2.2,4.5
			C1069.2,78.6,1065.6,79.4,1062,79.4z"/>
		<path class="st13" d="M1125.6,26.2c0-3-2.4-5.4-5.4-5.4c0,0,0,0,0,0h-364c-3,0-5.4,2.4-5.4,5.4v47.5c0-2.9,1.8-7.5,8-7.9
			l123.4-4.9l0,0l243.4-9.7V26.2z"/>
	</g>
	<path class="st14" d="M294.7,50.2c0-13.2,4.7-21.4,10.5-22.3c-5.8-6.9-15.4-10.7-24.1-10.7c-9.2,0-18.1,3.9-24.3,10.7
		c5.8,1.1,7.6,6,7.6,13.4h-6.9c0-4.5-0.9-6.7-3.5-6.7c-1.1,0-2.1,0.6-2.5,1.6c0,0.2-0.1,0.3-0.2,0.4c-0.3,0.6-0.4,1.3-0.5,2
		c0,8.9,15,8.5,15,22.5c0,5.4-4.3,10.5-9,10.5C268.9,85,289.6,86,303,73.8c0.7-0.6,1.4-1.3,2-2C299.4,70.5,294.7,62.7,294.7,50.2z
		 M291.6,71.6H284V53.1h-8v18.5h-7.3V28.8h7.3v17.4h8V28.8h7.6V71.6z"/>
	<path class="st14" d="M255.1,64.9c2,0,3.5-2,3.5-4.7c0-5.3-4.9-6.4-10-11.1v1.8C248.8,59.3,251.7,64.9,255.1,64.9z"/>
	<path class="st14" d="M302.1,49.5c0-7.3,2-14.5,5.8-14.5c3.8,0,5.8,11.2,5.8,14.8c0,7.5-2.5,14.7-5.8,14.7
		C304.6,64.5,302.1,57.1,302.1,49.5z"/>
	<polygon class="st14" points="376.5,29.5 345.1,29.5 342,54 342,54 338.7,29.5 331.7,29.5 328.2,54 328,54 325.3,29.5 318.4,29.5 
		323.9,71.2 330.6,71.2 334.4,44.6 334.6,44.6 338.2,71.2 345.1,71.2 349.6,35.9 356,35.9 356,71.2 363.6,71.2 363.6,35.9 
		370.5,35.9 370.5,71.2 378.3,71.2 378.3,29.5 376.5,29.5 	"/>
	<polygon class="st14" points="381.9,29.5 392.2,29.5 395.5,50.9 395.5,50.9 399.1,29.5 409.1,29.5 409.1,71.2 402.2,71.2 
		402.2,40.6 402.2,40.6 397.1,71.2 392.8,71.2 387.7,40.6 387.5,40.6 387.5,71.2 381.9,71.2 381.9,29.5 	"/>
	<polygon class="st14" points="412.7,29.5 429.8,29.5 429.8,35.9 420.2,35.9 420.2,46.4 427.4,46.4 427.4,53.3 420.2,53.3 
		420.2,64.7 430.3,64.7 430.3,71.2 412.7,71.2 412.7,29.5 	"/>
	<path d="M311.8,84.7c0-6.6,3.7-8.1,9.9-8.1h8.1c9.8,0,11.1,2.1,11,8.4h-6.9v-0.6c0-1.6-1.2-2.1-3.2-2.1h-7.5
		c-3.7,0-4.3,1.8-4.3,4.6v2.4c0,3.2,0.6,4.5,3.9,4.5h7.4c3.1,0,4-0.3,4-3.1h6.9v2.1c0,3.8-1.4,6.8-8.3,6.8h-11.1
		c-6.2,0-9.9-1.6-9.9-8.2V84.7z"/>
	<path d="M345.3,76.8h6.9v8h14.5v-8h6.9v22.5h-6.9v-8.5h-14.5v8.5h-6.9V76.8z"/>
	<path d="M388.2,76.8h9l12.4,22.5h-7.7l-2.1-4h-14l-2,4h-7.7L388.2,76.8z M388.4,90.5h8.8l-4.5-8.5L388.4,90.5z"/>
	<path d="M412,76.8h10.6l7.8,14.5l7.8-14.5h10.6v22.5h-6.7V83.2l0,0L433,99.3h-5.1l-9.1-16.1l0,0v16.1H412V76.8z"/>
	<path d="M453.5,76.8h18.8c6.5,0,8.1,3.3,8.1,7.7v1.9c0,3.4-1.4,7.3-6.3,7.3h-13.7v5.6h-6.9L453.5,76.8z M460.4,88.1h10.7
		c1.2,0.1,2.2-0.9,2.3-2.1c0-0.1,0-0.2,0-0.3v-0.9c0-1.5-0.8-2.4-2.9-2.4h-10.1L460.4,88.1z"/>
	<path d="M484.5,76.8h6.9v22.5h-6.9V76.8z"/>
	<path d="M496,84.7c0-6.6,3.7-8.1,9.9-8.1h11c6.3,0,10,1.5,10,8.1v6.7c0,6.6-3.7,8.2-10,8.2h-11c-6.2,0-9.9-1.6-9.9-8.2V84.7z
		 M503.1,89.3c0,3.2,0.6,4.5,3.9,4.5h8.8c3.3,0,4-1.3,4-4.5v-2.4c0-2.8-0.7-4.6-4.3-4.6h-8.1c-3.7,0-4.3,1.8-4.3,4.6V89.3z"/>
	<path d="M531,76.8h10.7l13,16.4l0,0V76.8h6.9v22.5h-10.7L538,83h-0.1v16.3H531V76.8z"/>
	<path d="M565.9,91.9h6.9c0,2.4,1,2.6,3,2.6h8.4c1.5,0,3-0.1,3-1.9s-0.8-2.1-9.7-2.1s-11.6-1.2-11.6-6.7s0.4-7.2,9.1-7.2h9.6
		c8,0,8.7,2.7,8.7,6.6v0.7h-6.9c0-1.6-0.2-2.3-3.3-2.3h-7.7c-1.5,0-2.6,0.5-2.6,1.7s0.9,2.1,8.2,2c10.8,0,13.3,0.6,13.3,7.2
		s-2.1,7.1-11.3,7.1h-8.3c-6.3,0-8.8-1.2-8.8-6.1L565.9,91.9z"/>
	<path d="M598.5,76.8h6.9v8H620v-8h6.8v22.5H620v-8.5h-14.6v8.5h-6.9V76.8z"/>
	<path d="M631.9,76.8h6.9v22.5h-6.9V76.8z"/>
	<path d="M643.8,76.8h18.8c6.6,0,8.2,3.3,8.2,7.7v1.9c0,3.4-1.5,7.3-6.4,7.3h-13.7v5.6h-6.9V76.8z M650.7,88.1h10.7
		c1.2,0.1,2.2-0.9,2.3-2.1c0-0.1,0-0.2,0-0.3v-0.9c0-1.5-0.8-2.4-2.9-2.4h-10.1V88.1z"/>
	<path d="M311.8,169.7v-65.3h49.4c4.8,0,8.3,1,10.4,3.1c2.1,2.1,3.3,5.3,3.3,9.8v9.2c0.1,1.7-0.3,3.4-1.1,4.9
		c-1.2,1.7-2.7,3.2-4.4,4.4c1.7,0.6,3.2,1.7,4.2,3.2c0.9,1.5,1.3,3.7,1.3,6.9v9.1c0,5.2-1.1,8.9-3.3,11.2c-2.2,2.3-5.8,3.5-10.6,3.5
		H311.8z M332.1,130.2h22.6v-8.1h-22.6V130.2z M332.1,151.9h22.6v-8.5h-22.6V151.9z"/>
	<path d="M440.6,152.1c0,5.9-1.4,10.2-4,13.2s-6.6,4.4-11.9,4.4h-30c-5.3,0-9.3-1.5-11.9-4.4c-2.6-2.9-4-7.3-4-13.2v-30
		c0-6,1.3-10.4,3.9-13.3c2.6-2.9,6.6-4.4,12-4.4h30c5.4,0,9.4,1.5,12,4.3s3.9,7.4,3.9,13.4V152.1z M399.2,151.9h21v-29.8h-21V151.9z
		"/>
	<path d="M512.5,169.7v-65.3h20.3v65.3H512.5z"/>
	<path d="M538.3,169.7v-65.3h25l15.9,25.7c0.5,0.8,1,1.8,1.7,3.1l2.6,5.4c-0.4-1.9-0.7-3.8-0.9-5.7c-0.1-2-0.2-4.1-0.2-6.5v-22h19.4
		v65.3h-19.4l-21.5-34.2c-0.7-1-1.3-2.2-1.8-3.3c-0.8-1.5-1.6-3.2-2.5-5.1c0.4,1.9,0.6,3.7,0.8,5.6c0.2,2.1,0.3,4.3,0.3,6.4v30.6
		L538.3,169.7z"/>
	<path d="M669.9,152.1c0,5.9-1.4,10.2-4,13.2c-2.6,3-6.7,4.4-12,4.4h-31.8c-5.3,0-9.3-1.5-12-4.4s-4-7.3-4-13.2v-30
		c0-6.2,1.4-10.7,4-13.5c2.6-2.8,6.8-4.2,12.5-4.2h46.5v17.7h-42.5v29.7h23.2v-21.4h20.1V152.1z"/>
	<path d="M478.7,136.4l-15.6,33.3h-23.7l17.3-33.3l-16.3-32h22.4L478.7,136.4"/>
	<path d="M482.6,136.4l-7.7-15.3l9.4-16.7h23.3l-16.4,32l17.3,33.3h-24.3l-9.2-17.4L482.6,136.4"/>
	<g id="Layer_2_1_">
		<g id="Layer_1-2">
			<rect y="135.8" class="st12" width="179.9" height="49.1"/>
			<rect x="6.3" y="3.4" class="st15" width="167.2" height="126.4"/>
			<path class="st16" d="M67.9,144.4c-4.8,0-8,2.5-8.4,6.3c-0.1,0.9-0.2,1.8-0.3,2.6h62.6c0,0,0.1-0.9,0.2-1.7
				c0.5-3.8-1.2-7.3-7.1-7.3H67.9z M29.7,144.4l-1.1,8.9H57l1.1-8.9H29.7z M125,144.4l-1.1,8.9h30.8c0,0,0-0.3,0.2-1.4
				c0.8-5.9-3-7.6-6.7-7.6H125z M123.5,156.8l-2.4,19.6h10.6l2.4-19.5L123.5,156.8z M143.7,156.8l-2.4,19.6h10.7l2.4-19.5
				L143.7,156.8z M28.2,156.8l-2.4,19.6h28.4l1.1-8.5H37.4l0.5-3.7h17.8l0.9-7.4H28.2z M58.7,156.8c-0.8,5.1,1.8,7.4,5.4,7.4h14.4
				l-0.5,3.7H57.3l-1,8.4h23.4c0.8-0.1,6-0.2,7.8-4.5c0.6-1.4,1.1-6.4,1.2-7.5c0.8-6.1-3.4-7.6-6.7-7.6H58.7z M91.8,156.8l-2.4,19.6
				H100l1.5-12.1h13.4c3.8,0,5.8-2.1,6.2-4.8c0.1-0.9,0.2-1.8,0.3-2.6H91.8z"/>
			<path class="st12" d="M75.7,116.2h5.6l1.4-4.3h1.3l0.8,4.3h6.2l-1-4.9c1.5-0.5,2.7-1.7,3.2-3.2l0.8-2.4c0.9-2.7-1.2-3.4-2.5-3.4
				H80.3L75.7,116.2z M87.7,104.6c0.8,0,1.1,0.2,0.8,1.2l-0.8,2.3c-0.3,0.9-0.8,1.3-1.5,1.3h-2.6l1.6-4.8H87.7z"/>
			<polygon class="st12" points="38.5,102.3 25,102.3 24.2,104.7 28,104.7 24.2,116.2 30.1,116.2 33.9,104.7 37.7,104.7 			"/>
			<path class="st12" d="M54.5,103.3c-0.4-0.6-1.1-1-2.3-1h-8.6c-1.1,0-2.1,0.3-3,1c-0.5,0.3-0.9,0.8-1.1,1.4h8.7
				c0.7,0,1,0.3,0.8,0.9l-2.5,7.5c-0.2,0.6-0.8,1-1.4,0.9H43c-0.7,0-1-0.3-0.8-0.9l2.5-7.4l-6,1l-0.9,2.7c-1.4,4.3-1.5,5.4-1.1,6
				c0.3,0.6,1.1,1,2.3,1h8.6c1.1,0,2.1-0.3,3-1c0.8-0.7,1.4-1.7,1.9-3.2l1.9-5.7C54.9,104.9,54.9,103.9,54.5,103.3z"/>
			<path class="st12" d="M69.3,102.3H58l-4.6,13.9h5.6l1.4-4.2h5.4c1.8,0,4.1-0.8,5.1-3.6l0.9-2.7C72.6,102.9,70.6,102.3,69.3,102.3
				z M65.3,108.4c-0.3,1-0.8,1.2-1.5,1.2h-2.7l1.7-5h2.8c0.8,0,0.9,0.2,0.6,1.2L65.3,108.4z"/>
			<polygon class="st12" points="109.2,116.2 114.9,116.2 118.4,105.6 112.4,106.6 			"/>
			<path class="st12" d="M125.3,102.3h-11.5l-0.8,2.4h8.6c0.6,0,0.8,0.2,0.6,0.8l-3.5,10.7h5.4l3.4-10.2
				C128.3,103.7,127.9,102.3,125.3,102.3z"/>
			<polygon class="st12" points="145.5,102.3 142.3,102.3 134.7,108.5 136.8,102.3 131.1,102.3 126.5,116.2 132.2,116.2 
				133.6,111.8 135.4,110.3 136.3,116.2 142.6,116.2 140.9,106.1 			"/>
			<path class="st12" d="M92,116.2h2.7l2.8-4.3h4.4l-0.3,4.3h6l0.4-13.9h-6.8L92,116.2z M101.8,109.5H99l3-4.6L101.8,109.5z"/>
			<path class="st12" d="M147.5,24.5h-117l-3.8,12.9h18.4L26.6,93.2h28.8l18.6-55.8h44.2l6.7-10.3l2.5,10.3h15.6l-13.6,8.3l3.9,16.5
				L121,50.8l-18.9,11.3l11-17.1l-25-4.9L71,93.3h26.9l6.7-20.5h6.1l3.8,20.5h30.2L140,69.8c8.5-2.7,13.6-9.6,15.6-15.6l4-11.9
				C164,29.3,154,24.5,147.5,24.5z"/>
			<polyline class="st15" points="73.9,37.4 89.1,37.4 118.1,37.4 124.9,27.1 127.4,37.4 142.9,37.4 129.3,45.7 133.3,62.1 
				121,50.8 102.1,62.2 113.2,45.1 88.2,40.2 			"/>
			<rect y="0.4" class="st17" width="179.9" height="6"/>
			<rect y="129.8" class="st17" width="179.9" height="6"/>
			<rect y="184.9" class="st17" width="179.9" height="6"/>
		</g>
	</g>
</g>
</svg>
