<svg xmlns="http://www.w3.org/2000/svg" viewBox="0 0 172.1 172"><defs><style>.cls-1{fill:#fff;}</style></defs><title>Asset 1</title><g id="Layer_2" data-name="Layer 2"><g id="Layer_1-2" data-name="Layer 1"><path class="cls-1" d="M86.1,0h75.4c6.3,0,10.5,4.1,10.6,10.4V160.9c0,3.4-.9,6.4-3.5,8.7a9.7,9.7,0,0,1-6.5,2.4H10A9.9,9.9,0,0,1,0,162V10A9.9,9.9,0,0,1,10.1,0Zm81,69.8-.3-.2a5.6,5.6,0,0,1-.5.8A8.7,8.7,0,0,1,156,72.1a10.6,10.6,0,0,0-7-1.2c-2.1.4-4.3.6-6.1,2a1.8,1.8,0,0,1-1.2.3c-1.6-.6-2.9.1-4.3.6l-16.6,5.4a8.3,8.3,0,0,1-6.7-.3l-15.8-8L97,70.2l-.9,1.7a29,29,0,0,1-10.2,12,11.5,11.5,0,0,0-2.7,2.7L74,101a25.2,25.2,0,0,0-3.8,9.1c-.1.7,0,1.1.7,1.4s2.1,1.1,1.7,3-1.3,5.7-2,8.5c0,.3,0,.9.2,1,2.1,1.1,3,3,4,4.9l14,26.8c1.7,3.2,3.9,6.3,3.9,10.2,0,1,.5,1.3,1.5,1.3h67.2c3.8,0,5.7-2,5.7-5.8V69.8ZM87.3,4.8V5l.6.3a63.6,63.6,0,0,1,11.7,6.5c.6.5,1,.9.9,1.7a18.8,18.8,0,0,0-.5,3.3c0,2,.2,3.9.3,5.9a19.4,19.4,0,0,1-.5,2,4.2,4.2,0,0,0-.4,1.8q.6,3.2,1.5,6.3a1.2,1.2,0,0,1-1,1.6l-2.3.6c0,.8.3,1.8,0,2a2.5,2.5,0,0,0-.8,2.2c0,.2-.3.5-.5.6s-1.2,1.7-1.4,2.8l1.3.4a22.6,22.6,0,0,1,9.6,6.1,7.9,7.9,0,0,0,4.4,2.5c3.9,1,7.3,2.6,9.7,6a2.9,2.9,0,0,0,3,1.3c1.1-.1,2.2-.3,3.3-.3l9.2-.5c1.4-.2,3.1,0,3.6-2,.1-.5.8-.8,1.2-1.1l3.7-2.2a3.8,3.8,0,0,0,1.1-1.1,12.1,12.1,0,0,1,10-5.6c4.5-.1,8.2,1.9,11.3,5.1a2.5,2.5,0,0,1,.4.9c.4-.5.4-.6.4-.7,0-13.9.1-27.7,0-41.6a6.1,6.1,0,0,0-1.4-3.3c-1.1-1.5-2.8-1.7-4.5-1.7H87.3ZM4.9,63.2H8.2l16-.3c.6-.1,1.3-.1,1.6-.4L30,57.3l-.2-.3L8.2,56.3v-.4l1.1-.2,12.4-.4,8.3-.2c.5-.1,1.2-.2,1.3-.5s1.3-3.4,2-5.3l-19.8-.7v-.4l.7-.2,5.5-.2,13.7-.5a2.2,2.2,0,0,0,1.3-.6c1.2-1.6,2.3-3.4,3.4-5l-20.5-.8v-.4l.8-.2,21.1-.7a9.3,9.3,0,0,0,4.6-1,5.5,5.5,0,0,1,1.8-.6c2.6-.5,5.1-1.1,7.7-1.4s6.3-1,9.5-.5a.6.6,0,0,0,.6-.1c.8-1.5,2.1-2.7,2.1-4.6-.1-4.4.1-8.9-.1-13.3A12.2,12.2,0,0,1,68.2,10a5.3,5.3,0,0,1,1.1-1.5,16.8,16.8,0,0,1,2.1-1.8l3-1.6-1-.3c-21,0-41.9.1-62.9,0a5.6,5.6,0,0,0-5.7,5.7c.1,17.1.1,34.2.1,51.4Zm19.3,1.5L5,64.1v6.6h.4c4.6-.1,9.2-.1,13.7-.3a1.5,1.5,0,0,0,.9-.4C21.4,68.4,22.7,66.6,24.2,64.7Zm-2.8,38.4L5,102.7v6.8H6.2l8.8-.3c2.3,0,2.2,0,3-2.2a2,2,0,0,1,1.1-1.1C21.1,105.5,21.3,105.4,21.4,103.1ZM65,77.6H63.7l-32.9.7-14.6.3c-.6,0-1.2-.1-.9.9l13.3.4,17.8.4c2.2,0,4.4.6,6.5-.8h.6l4.3.4A8.7,8.7,0,0,0,65,77.6ZM5,101.7H6l14.8-.5c1.4,0,1.2-.9,1.3-1.7s-.5-1.2-1.3-1.3l-4.3-.2c-1-.1-1.7-.4-2-1.4a1.8,1.8,0,0,0-2.2-1.4H5Zm62.8-32-2.5.2-25.9.5a3.4,3.4,0,0,0-2.7,1.8l4.2.3,24.3.5c2.7.1,2.9-.1,2.7-2.9ZM5,78.3h9.6a.7.7,0,0,0,.6-.3l3-5.7H5Zm-.1,38.6h9.7a.9.9,0,0,0,.5-.3c.6-2,1.2-3.9,1.8-6.1H4.9Zm38-52.2,24.2.6c-.4-.9-.7-1.5-.9-2.1s-.9-1-1.8-1l-18.9.5C44,62.7,43.4,63.3,42.9,64.7ZM5,80v6h8a1.2,1.2,0,0,0,.8-.6c.3-1.7.5-3.4.7-5.3Zm8.1,7.7H5v6h8.1ZM5,124.7h6.1a1.1,1.1,0,0,0,.8-.7c.5-1.9.9-3.7,1.3-5.7H5ZM44,85.8h-.9L30.6,86l-15.7.3a3.6,3.6,0,0,0-1.1.4v.5l1.8.2c8.1.1,16.2.2,24.2.5C41.7,88,42.6,86.9,44,85.8Zm-39,40v6.7H7.7c2.8,0,2.8,0,3.3-2.8.2-1.2.4-2.4.6-3.9Zm5.4,7.7H5.7c-.3,0-.8.4-.8.6v6.1H9a.8.8,0,0,0,.6-.4C9.9,137.7,10.1,135.7,10.4,133.5Zm-1,7.8H5v6.5H7.9c.2,0,.7-.3.7-.5C8.9,145.3,9.1,143.4,9.4,141.3ZM33.3,93.7l-19.4.4v.6l1.4.2,12.4.4A8.2,8.2,0,0,0,33.3,93.7ZM5,149v6.4H7.5l.9-6.4Zm0,7.7v6.4H8l-.4-6.4ZM49.9,56.9v.4h9.8C56.4,55.9,53.2,55,49.9,56.9ZM40,41.3c5.3.2,6.1,0,7.7-1.7C45.1,40.3,42.3,39.1,40,41.3ZM30.8,56.2v.5c1.5,0,3.1-.1,4.6,0s1.4-.4,1.6-1.4c-1.9.1-3.6.1-5.3.3S31.1,56,30.8,56.2Zm9.4-8.6-5.4.3c-.2,0-.5.4-.8.7l.2.4c1.5,0,2.9-.1,4.4,0S40,48.8,40.2,47.6ZM25.9,71.3V71H20c-.3,0-.5.4-.8.6l.2.4h5.3C25.1,72,25.5,71.5,25.9,71.3Zm5.6-8H26c-.2,0-.5.4-.8.6v.4h4.6A1.7,1.7,0,0,0,31.5,63.3ZM28,102l-.2-.3H22.7c-.3,0-.6.4-.8.7l.2.4h3.5a4.2,4.2,0,0,0,1.6-.1C27.5,102.7,27.8,102.3,28,102Zm-10.5,7.7v.6h5.3l.5-.4c-.2-.1-.4-.4-.6-.4H17.5Zm-2.7,7.7v.4c4.5.4,5.2.3,5.7-.4ZM7.3,166.8l.5-.4v-2H5.6l-.2.3Zm4.9-41.7c2,.7,5.2.5,5.6,0Zm4.5,8.1v-.6l-5.7.3v.3C12.9,133.2,14.8,133.3,16.7,133.2Zm-1.1,7.6v-.2H9.9v.2ZM9,148.2v.2h5.6v-.2Zm-.8,7.7v.3h5.5v-.3Zm.3,7.7v.2H14v-.2Z"/></g></g></svg>