<?xml version="1.0" encoding="UTF-8" standalone="no"?>
<!-- Created with Inkscape (http://www.inkscape.org/) -->

<svg
   xmlns:dc="http://purl.org/dc/elements/1.1/"
   xmlns:cc="http://creativecommons.org/ns#"
   xmlns:rdf="http://www.w3.org/1999/02/22-rdf-syntax-ns#"
   xmlns:svg="http://www.w3.org/2000/svg"
   xmlns="http://www.w3.org/2000/svg"
   xmlns:sodipodi="http://sodipodi.sourceforge.net/DTD/sodipodi-0.dtd"
   xmlns:inkscape="http://www.inkscape.org/namespaces/inkscape"
   width="1000"
   height="411.48907"
   viewBox="0 0 264.58333 108.87315"
   version="1.1"
   id="svg8"
   inkscape:version="0.92.4 (5da689c313, 2019-01-14)"
   sodipodi:docname="a.svg">
  <defs
     id="defs2" />
  <sodipodi:namedview
     id="base"
     pagecolor="#ffffff"
     bordercolor="#666666"
     borderopacity="1.0"
     inkscape:pageopacity="0.0"
     inkscape:pageshadow="2"
     inkscape:zoom="0.35"
     inkscape:cx="1673.9916"
     inkscape:cy="-150.54005"
     inkscape:document-units="px"
     inkscape:current-layer="layer1"
     showgrid="false"
     units="px"
     inkscape:window-width="1920"
     inkscape:window-height="1017"
     inkscape:window-x="1912"
     inkscape:window-y="-8"
     inkscape:window-maximized="1"
     fit-margin-top="0"
     fit-margin-left="0"
     fit-margin-right="0"
     fit-margin-bottom="0">
    <inkscape:grid
       type="xygrid"
       id="grid18"
       originx="201.089"
       originy="-76.048808" />
  </sodipodi:namedview>
  <metadata
     id="metadata5">
    <rdf:RDF>
      <cc:Work
         rdf:about="">
        <dc:format>image/svg+xml</dc:format>
        <dc:type
           rdf:resource="http://purl.org/dc/dcmitype/StillImage" />
        <dc:title></dc:title>
      </cc:Work>
    </rdf:RDF>
  </metadata>
  <g
     inkscape:label="Layer 1"
     inkscape:groupmode="layer"
     id="layer1"
     transform="translate(201.089,-112.07803)">
    <g
       transform="matrix(0.10898213,0,0,0.10898213,-179.40156,96.783069)"
       id="layer1-4"
       inkscape:label="Layer 1">
      <path
         inkscape:connector-curvature="0"
         id="path3008"
         d="M 300.48362,140.34375 C 24.617462,140.34375 -199,363.96121 -199,639.82737 -199,915.69352 24.617462,1139.3438 300.48362,1139.3438 576.34978,1139.3438 800,915.69352 800,639.82737 799.99997,363.96123 576.34975,140.34375 300.48362,140.34375 Z m -0.22932,61.5878 c 242.15075,0 438.45271,196.30198 438.45273,438.45273 0,242.15077 -196.30196,438.45272 -438.45273,438.45272 -242.150764,0 -438.45273,-196.30195 -438.45273,-438.45272 0,-242.15077 196.301966,-438.45273 438.45273,-438.45273 z"
         style="fill:#7509b7;fill-opacity:1;stroke:none" />
      <path
         inkscape:connector-curvature="0"
         id="path2998"
         d="M 51.544417,469.08502 V 809.16106 H 189.92041 c 62.89175,0 111.2184,-39.26657 111.2184,-101.45607 0,-54.84951 -42.81663,-75.77265 -42.81663,-75.77265 0,0 32.85775,-20.98385 32.85775,-67.64831 0,-54.2039 -42.7936,-95.19901 -105.91136,-95.19901 z m 76.526123,66.46896 h 40.88381 c 29.05749,0 41.73557,14.9363 41.73557,33.3819 0,20.02531 -14.35538,32.66119 -39.80276,32.66119 h -42.81662 z m 0,134.18278 h 40.88381 c 29.05749,0 41.73557,14.93631 41.73557,33.3819 0,20.02531 -14.35538,32.66119 -39.80276,32.66119 h -42.81662 z"
         style="fill:#7509b7;fill-opacity:1;stroke:none" />
      <path
         inkscape:connector-curvature="0"
         id="path3000"
         d="M 403.77423,808.09932 V 547.07187 h -76.52612 v -78.62272 h 237.96478 v 78.62272 h -79.67103 v 261.02745 z"
         style="fill:#7509b7;fill-opacity:1;stroke:none" />
    </g>
    <path
       style="opacity:1;fill:#7509b7;fill-opacity:1;stroke:none;stroke-width:0.06238639;stroke-linecap:square;stroke-miterlimit:4;stroke-dasharray:none;stroke-opacity:1"
       d="m -81.554015,175.96169 v 7.98545 c 0,0 4.886624,1.95849 10.732687,1.95849 8.450469,0 13.914393,-3.76602 13.914393,-11.8367 0,-11.07876 -15.173262,-10.83883 -15.173262,-15.93638 0,-1.79371 1.483484,-2.65699 4.645558,-2.65699 4.148028,0 8.58927,1.89499 8.58927,1.89499 v -8.11023 c 0,0 -3.643212,-1.63156 -9.27488,-1.63156 -6.768081,0 -13.553189,3.23157 -13.553189,11.04815 0,11.76494 15.085471,10.49316 15.085471,16.31668 0,2.30164 -1.587118,3.16387 -4.979769,3.16387 -4.899836,0 -9.986279,-2.19577 -9.986279,-2.19577 z"
       id="path42"
       inkscape:connector-curvature="0"
       sodipodi:nodetypes="ccccccccccccc" />
    <path
       style="opacity:1;fill:#7509b7;fill-opacity:1;stroke:none;stroke-width:0.06238638;stroke-linecap:square;stroke-miterlimit:4;stroke-dasharray:none;stroke-opacity:1"
       d="m -52.731505,148.07496 v 37.1199 h 9.233185 V 173.0919 h 1.787029 c 9.944595,0 13.942138,-5.65438 13.942138,-12.7646 0,-8.69049 -6.274118,-12.25234 -12.859394,-12.25234 z m 9.233185,7.48636 h 1.622046 c 2.529495,0 5.12007,0.74713 5.12007,4.8408 0,3.81326 -2.021785,5.20341 -5.12007,5.20341 h -1.622046 z"
       id="path44"
       inkscape:connector-curvature="0" />
    <path
       style="opacity:1;fill:#7509b7;fill-opacity:1;stroke:none;stroke-width:0.06238638;stroke-linecap:square;stroke-miterlimit:4;stroke-dasharray:none;stroke-opacity:1"
       d="m -9.8498835,147.63825 c -8.6320555,0 -14.7828915,6.22596 -14.7828915,19.14458 0,10.95481 3.760485,19.0393 14.6827326,19.0393 10.14030789,0 14.677616,-8.77585 14.677616,-19.21183 0,-13.73703 -6.2866423,-18.97205 -14.5774571,-18.97205 z m -0.00463,7.93502 c 4.4448315,0 5.1675914,5.45856 5.1675914,11.20176 0,6.03471 -1.0308239,11.20957 -5.293582,11.20957 -4.7739349,0 -5.2070699,-6.67736 -5.2070699,-11.35944 0,-5.30148 0.805862,-11.05189 5.3330605,-11.05189 z"
       id="path48"
       inkscape:connector-curvature="0" />
    <path
       id="path54"
       d="m 34.086627,159.94919 c 0,-7.79545 -5.351372,-11.87423 -12.827882,-11.87423 H 9.1557877 v 37.1199 H 18.38897 v -13.10113 h 1.495566 l 7.113759,13.10114 h 9.857048 l -8.994779,-15.16435 c 3.430694,-1.52211 6.226063,-4.64482 6.226063,-10.08133 z M 18.38897,155.56132 h 1.622044 c 2.5295,0 5.120071,0.98201 5.120071,4.54001 0,3.13579 -2.021857,4.62511 -5.120071,4.64639 H 18.38897 Z"
       style="opacity:1;fill:#7509b7;fill-opacity:1;stroke:none;stroke-width:0.06238638;stroke-linecap:square;stroke-miterlimit:4;stroke-dasharray:none;stroke-opacity:1"
       inkscape:connector-curvature="0"
       sodipodi:nodetypes="csccccccsccccsscc" />
    <path
       style="opacity:1;fill:#7509b7;fill-opacity:1;stroke:none;stroke-width:0.06238638;stroke-linecap:square;stroke-miterlimit:4;stroke-dasharray:none;stroke-opacity:1"
       d="m 45.714211,185.19487 v -29.69592 h -8.546936 v -7.42398 h 26.327058 v 7.42398 h -8.54694 v 29.69592 z"
       id="path56"
       inkscape:connector-curvature="0"
       sodipodi:nodetypes="ccccccccc" />
  </g>
</svg>
