<svg xmlns="http://www.w3.org/2000/svg" viewBox="0 0 467 466.8"><title>Asset 1</title><g id="Layer_2" data-name="Layer 2"><g id="svg4725"><path d="M466.9,102.7V205.5L453,219.4l-14,14,14,14,13.9,13.9V466.8H0V261.4l13.9-13.9,14-14-14-14L0,205.6V0H467V102.7ZM22.6,109.1v86.5l18.9,18.9,19,19-19,19L22.6,271.4v173H444.2v-173l-18.9-18.9-19-19,19-19,18.9-18.9V22.6H22.6Z"/><path d="M191.8,91.1l14.7,14.7v70l-14.6,14.6-14.7,14.7H99V76.3h78.2Zm-70.1,49.7v41.7h45.8l7.5-8.1,7.5-8V115.1l-7.6-8.1-7.6-8.1H121.7Z"/><path d="M352,140.7c14.6,35.2,26.5,64,26.5,64.2s-5.5.3-12.3.3H353.9l-3.2-7.6-3.2-7.6H282.1l-3,7.4-3,7.4-12.5.2c-9.9.1-12.5,0-12.2-.7s12-29.1,26.3-63.5L304,77.3c.3-.6,2.9-.8,11-.7l10.5.2Zm-48.3-2.2c-5.9,14.3-11,26.5-11.2,27.2s.9,1.3,22.4,1.3c18.3,0,22.7-.2,22.5-.9s-22.1-53.6-22.5-53.6S309.7,124.3,303.7,138.5Z"/><polygon points="196.7 273 196.7 284.3 163 326 129.5 367.6 163 367.8 196.7 367.9 196.7 379.3 196.7 390.6 147.8 390.6 99 390.6 99 379 99.1 367.6 132.9 326.2 166.7 284.8 132.8 284.6 99 284.4 99 273.1 99 261.8 147.8 261.8 196.7 261.8 196.7 273"/><polygon points="312.8 307.6 344.9 353.6 345.1 307.6 345.2 261.8 356.6 261.8 367.9 261.8 367.9 326.2 367.9 390.6 355 390.6 342.1 390.6 313.4 348.9 284.7 307.3 284.5 349 284.4 390.6 272.4 390.6 260.3 390.6 260.3 326.2 260.3 261.8 270.5 261.8 280.6 261.8 312.8 307.6"/></g></g></svg>