<svg enable-background="new 0 0 1100 720" viewBox="0 0 1100 720" xmlns="http://www.w3.org/2000/svg"><g stroke="#fff"><path d="m550 20h-525v680h1050v-680h-525v680z" fill="none" stroke-width="5"/><circle cx="550" cy="360" fill="none" r="91.5" stroke-width="5"/><circle cx="550" cy="360" r="2"/><circle cx="135" cy="360" r="2"/><circle cx="965" cy="360" r="2"/><g fill="none" stroke-width="5"><path d="m25 324.4h-10v72.2h10z"/><path d="m1075 324.4h10v72.2h-10z"/><path d="m25 269.4h55v182.2h-55z"/><path d="m1075 269.4h-55v182.2h55z"/><path d="m25 159.4h165v402.2h-165z"/><path d="m1075 159.4h-165v402.2h165z"/><path d="m190 286.9c40.4 30.4 48.5 87.7 18.1 128.1-5.2 6.9-11.3 13-18.1 18.1z"/><path d="m910 286.9c-40.4 30.4-48.5 87.7-18.1 128.1 5.2 6.9 11.3 13 18.1 18.1z"/><path d="m25 30c5.5 0 10-4.5 10-10h-10z"/><path d="m35 700c0-5.5-4.5-10-10-10v10z"/><path d="m1075 690c-5.5 0-10 4.5-10 10h10z"/><path d="m1065 20c0 5.5 4.5 10 10 10v-10z"/></g></g></svg>