<svg xmlns="http://www.w3.org/2000/svg" viewBox="0 0 200 118.12"><defs><style>.cls-1{fill:#8ba0b2;}.cls-2{fill:#003380;}</style></defs><title>Asset 5</title><g id="Layer_2" data-name="Layer 2"><g id="svg2"><g id="g6"><path id="path10" class="cls-1" d="M92.11,0,88.83.23A151.55,151.55,0,0,0,51.88,7.12c-19.79,6.46-35.08,16.4-44,28.61A41,41,0,0,0,.22,54.31a51.43,51.43,0,0,0,0,9.45A39.14,39.14,0,0,0,5.9,79.3C12.21,89.5,24,99.08,38.15,105.58c21.45,9.82,48.16,14.11,75,12C147.68,114.93,177,102,191.46,83.1A44.47,44.47,0,0,0,196,75.77a37.69,37.69,0,0,0,3.59-10.66,49.7,49.7,0,0,0,.22-10.85Q197.68,38.26,182,25C166.89,12.26,144,3.58,118.26.82A131.24,131.24,0,0,0,101.2,0C96.56,0,92.48,0,92.11,0Zm5.48,3a5,5,0,0,1,0,2.68c-.1,0-1.56.13-3.25.22C75,7,57.54,13.08,44.41,23.39a84.58,84.58,0,0,0-9,8.71c-6.88,8.56-10.25,17.52-10.25,27.31C25.19,70.17,29.33,80,37.68,89c7.4,8,18.21,14.67,30.45,18.77A98.76,98.76,0,0,0,95,112.65a8.2,8.2,0,0,1,2.67.29,3.61,3.61,0,0,1,.12,1.41l0,1.22-2.61,0c-1.43,0-3.71-.1-5.07-.19-27.69-1.75-52.24-10.09-69-23.49a79.43,79.43,0,0,1-8.4-8.3C7.24,76.93,4,69.63,3.26,62.36a38.67,38.67,0,0,1,.3-8.46A34.16,34.16,0,0,1,7.08,43.48c5.29-10.59,15.51-19.75,30.11-27C50.08,10,65.07,5.82,81.82,3.92c4.37-.5,8.56-.78,15-1A1.2,1.2,0,0,1,97.59,3.06Zm9.94-.26A155.85,155.85,0,0,1,142,8.25a112.77,112.77,0,0,1,30.74,13.61c10.67,7,18,15.31,21.68,24.67,4.88,12.27,2.48,25-6.87,36.59a85.05,85.05,0,0,1-8.7,8.58c-17.71,14.14-43.75,22.5-73.55,23.59-2.31.08-2.72,0-2.88-.14s-.18-.61-.15-1.45l0-1.22,2.31-.1c17.36-.75,33.38-5.64,46.17-14.07,9-6,15.5-13,19.63-21.2a39,39,0,0,0,4.35-19.54c-.37-11-4.82-20.59-13.67-29.5-8-8-17.62-13.77-29.88-17.78a96.79,96.79,0,0,0-25.49-4.64,20,20,0,0,1-3.31-.33,5.91,5.91,0,0,1-.08-2.65,6,6,0,0,1,1.6,0C104.77,2.68,106.38,2.76,107.53,2.8Zm1.19,5.27a95.68,95.68,0,0,1,25.42,5.74c9.44,3.64,19.24,9.57,22.62,13.7a50.73,50.73,0,0,1,11.65,28,51,51,0,0,1-.28,9.79,47.29,47.29,0,0,1-4.71,14.88,48.89,48.89,0,0,1-5.32,8.56,23.62,23.62,0,0,1-5.42,5.42c-17.89,13.31-44,18.91-69,14.78A85.66,85.66,0,0,1,50.45,96.36c-3.86-2.54-5.8-4.13-7.32-6A51.16,51.16,0,0,1,31.66,64.16a54.59,54.59,0,0,1-.09-9.82A50.57,50.57,0,0,1,43.42,27.17c1.78-2.13,6.36-5.44,11.43-8.31,11.29-6.37,24.71-10.11,39.57-11C96.53,7.67,106.59,7.85,108.72,8.07Z"/><path id="path12" class="cls-2" d="M54.18,11.44C41.37,15.65,31.28,21,22.88,27.92A74.44,74.44,0,0,0,15,35.82,39.24,39.24,0,0,0,7.14,51.09a39.14,39.14,0,0,0-.88,5.31c0,.17,1.07.2,8,.17l8,0,.17-1.62q1.39-13,10.88-24.39a69.45,69.45,0,0,1,22.11-16.9,18.18,18.18,0,0,0,2.28-1.26c.18-.25-.24-1.78-.5-1.82A29.3,29.3,0,0,0,54.18,11.44Z"/><path id="path14" class="cls-2" d="M6.31,60.5a33.42,33.42,0,0,0,3.82,13.86c6.1,11.77,19.48,22.34,37.05,29.26,3.18,1.26,9.44,3.38,9.94,3.38.23,0,.34-.15.46-.62.39-1.36.53-1.22-2.53-2.76q-17.37-8.84-25.9-22.46a44,44,0,0,1-6.65-18.8c-.06-.6-.13-1.48-.18-2l-.09-.84H6.31Z"/><path id="path16" class="cls-2" d="M142.35,11.15c-.33,1.31-.39,1.24,2,2.41,8.72,4.33,16.28,9.94,21.48,16a49.07,49.07,0,0,1,7.05,10.32A41,41,0,0,1,177.55,55l.18.57,8,1h8l-.09-.94c-.83-8.14-4.51-15.61-11.21-22.69-7.9-8.37-19-15.21-32.55-20.13-2.92-1.05-6.79-2.3-7.17-2.3C142.6,10.51,142.47,10.71,142.35,11.15Z"/><path id="path18" class="cls-2" d="M177.37,59.7c0,.77-.39,4.26-.61,5.6-2.67,15.58-14.74,29.8-32.88,38.75-2,1-2.13,1.07-2.13,1.45,0,.7.3,1.5.55,1.5a60.55,60.55,0,0,0,6.3-2C166,98.8,179.41,89.58,186.89,78.59A35.78,35.78,0,0,0,193.09,63a21,21,0,0,0,.22-2.46v-1h-8C180.44,59.57,177.37,59.63,177.37,59.7Z"/><path id="path26" class="cls-2" d="M46.53,75.85l-1.22,1.26v5.45l1,1,1,1H52c4,0,4.71,0,4.91.24A3.88,3.88,0,0,1,57,87.39c-.14.14-1.52.18-5.29.18l-5.12,0L46,88.2l-.66.62v2.75h14.5l1.26-1.28L62.31,89V83l-1.4-1-1.07-1.33H55.28c-3.34.27-4.59.23-4.73.09a4.37,4.37,0,0,1,0-2.43c.14-.14,5,.34,5,.34h4.78l.47-.51c.47-.49.47-.52.47-2V74.57H47.76Z"/><path id="path28" class="cls-2" d="M64.31,83.32v8.25h5l1-2.85V85.57l4,1,4.38,0L80,85.24l1.32-1.32V77.19L80,75.89l-1.33-1.32H64.31Zm11.77-4.9c.35.32.38.45.38,1.85s0,1.54-.33,1.85-.39.33-3.25.33a10.72,10.72,0,0,1-3.1-.17,14.66,14.66,0,0,1-.07-4.13,23.63,23.63,0,0,1,3.05-.1C75.71,78.05,75.73,78.05,76.08,78.42Z"/><path id="path30" class="cls-2" d="M85.59,75.94,84.31,77.3V89l1.31,1.28,1.28,1.26H98.73L100,90.31l1.3-1.28V77.11L100,75.84l-1.28-1.27H86.86Zm10.23,3.13.49.5v7l-.46.48-.47.49H90.31l-.5-.5-.5-.5v-7l.47-.49.47-.49h5.07Z"/><path id="path32" class="cls-2" d="M103.31,83.11v7.46h5V85.32l2.74,0c1.62,0,2.22,0,2.32.15s.63,1.48,1.2,3l1,3.1,2.51.05c2.74,0,2.8,0,2.8-.27a30.69,30.69,0,0,0-1.36-3.4c-.73-1.7-1.35-3.16-1.35-3.25a7.28,7.28,0,0,1,1.05-1.15l1-1V77l-1.24-1.21-1.24-1.2H103.31Zm11.82-4.69c.33.31.38.48.38,1.33s-.06,1.06-.33,1.34-.39.34-3.18.34a10.35,10.35,0,0,1-3-.18,8.51,8.51,0,0,1-.08-3.1,22.73,22.73,0,0,1,3-.1C114.76,78.05,114.77,78.05,115.13,78.42Z"/><path id="path34" class="cls-2" d="M122.31,76.56v2h2a9.14,9.14,0,0,1,2.8.18c.14.13.18,1.77.18,6.5v6.32h5l1-6.59V77.57l1.84,1,3.16,0v-4h-16Z"/><path id="path36" class="cls-2" d="M140.46,75.77,139.31,77v5.6l1,1,1,1H146c4,0,4.71,0,4.91.24a3.88,3.88,0,0,1,.06,2.58c-.14.14-1.54.18-5.38.18h-5.18l-.57.59-.57.58v2.83h14.63l1.2-1.2,1.17-1.18V82.81l-1.58-1-1-1.25h-4.55c-3.34.27-4.59.23-4.72.09a4.19,4.19,0,0,1,0-2.43c.13-.14,5,.34,5,.34h4.88l.47-.51c.47-.49.47-.52.47-2V74.57h-13.7Z"/></g><path id="path1371" class="cls-2" d="M155.05,71.57H140.13a.1.1,0,0,1-.08,0c-2.18-3.85-4.36-7.72-6.52-11.57-2.18,3.86-4.31,7.79-6.48,11.65-4.89,0-9.73,0-14.57,0,.55-1,1.13-2,1.71-3,4.08-6.9,8.09-13.89,12.17-20.8-4.33-7.42-8.74-14.79-13.1-22.2,0,0,0,0,0,0h15c1.84,3.29,3.64,6.61,5.45,9.92,1.89-3.28,3.71-6.62,5.57-9.92h14.49l0,0c-4.25,7.34-8.61,14.69-12.86,22,4.69,8,9.48,16,14.14,23.94Z"/><path id="path1373" class="cls-2" d="M118.87,42.74a20.44,20.44,0,0,1,.6,4.94,21.93,21.93,0,0,1-3.87,12.84c-.38.56-.76,1.1-1.18,1.61a20.94,20.94,0,0,1-4.34,4.05,23.24,23.24,0,0,1-3.54,2.06A22.35,22.35,0,0,1,76.77,57.3a22.5,22.5,0,0,1-2-9.07,21.67,21.67,0,0,1,.52-5,22.4,22.4,0,0,1,12.4-15.53,21.79,21.79,0,0,1,9.16-2.09h0a20.7,20.7,0,0,1,5.13.52,21.86,21.86,0,0,1,4.23,1.4,22.41,22.41,0,0,1,9.21,7.59A22,22,0,0,1,118.87,42.74ZM101.21,58.67a9.12,9.12,0,0,0,.1-2.08V39.21a4.8,4.8,0,0,0-.3-1.87,4.06,4.06,0,0,0-.89-1.31A4,4,0,0,0,97,34.77a3.71,3.71,0,0,0-1.68.55,4.06,4.06,0,0,0-1.84,2.53,9.26,9.26,0,0,0-.14,2V57.28a7.1,7.1,0,0,0,0,1,3.75,3.75,0,0,0,1.09,2.2,3.88,3.88,0,0,0,3.21,1.14A4,4,0,0,0,101.21,58.67Z"/><path id="path1377" class="cls-2" d="M75.34,37.57H59c-.07,2,0,4.19,0,6.19,4.41,0,8.89,0,13.33,0v12.6c-4.42,0-8.88,0-13.27,0,0,5.09,0,10.08,0,15.16a0,0,0,0,1,0,0H45.6l0,0c0-15.61,0-31.33,0-46.95H74.41l0,0C74.75,28.92,75,33.25,75.34,37.57Z"/></g></g></svg>