<?xml version="1.0" encoding="utf-8"?>
<!-- Generator: Adobe Illustrator 22.1.0, SVG Export Plug-In . SVG Version: 6.00 Build 0)  -->
<svg version="1.1" id="_x2014_ÎÓÈ_x5F_1" xmlns="http://www.w3.org/2000/svg" xmlns:xlink="http://www.w3.org/1999/xlink"
	 x="0px" y="0px" viewBox="0 0 5000 4782" style="enable-background:new 0 0 5000 4782;" xml:space="preserve">
<style type="text/css">
	.st0{fill:#FFFFFF;}
</style>
<g>
	<path class="st0" d="M1993.6,4207c0,279.2,227.2,506.4,506.4,506.4s506.4-227.2,506.4-506.4c0-12.1-1-24-1.8-35.8l1937.5-1945.3
		l-3.1-23.7C4779.5,985.8,3731,68.6,2500,68.6C1271.2,68.6,222.6,985.8,61,2202l-3.2,23.7l1937.5,1945.3
		C1994.6,4183,1993.6,4194.9,1993.6,4207z M2500,4616.2c-225.7,0-409.2-183.6-409.2-409.2c0-119.3,51.6-226.5,133.3-301.4v219.3
		l275.9,161.9l275.9-161.9v-219.3c81.7,74.9,133.3,182.1,133.3,301.4C2909.3,4432.6,2725.7,4616.2,2500,4616.2z M1179.6,2437.6
		L2367,1250.3l133,133l133-133l1187.4,1187.4l-133,133l133,133L2722.9,3801.3h-445.7L1179.6,2703.7l133.1-133L1179.6,2437.6z
		 M2314.1,1060L2500,874l185.9,185.9L2500,1245.9L2314.1,1060z M2678.7,3898.5v170.8L2500,4174.2l-178.7-104.9v-170.8H2678.7z
		 M160.6,2191.2C326.2,1034.9,1327.7,165.8,2500,165.8c1174.4,0,2175.9,869,2339.4,2025.4L2983.1,4055
		c-29.7-94.4-86.4-176.9-160.9-238.5L3877.7,2761l133,133.1l323.4-323.4l-323.4-323.3l-133,133L2690.3,1193l133-133L2500,736.6
		L2176.7,1060l133.1,133L1122.4,2380.4l-133-133l-323.4,323.3L989.3,2894l133.1-133l1055.5,1055.5
		c-74.6,61.6-131.2,144.2-160.9,238.5L160.6,2191.2z M3824.8,2570.7l185.9-185.9l185.9,185.9l-185.9,185.9L3824.8,2570.7z
		 M1175.2,2570.7l-185.9,185.9l-185.9-185.9l185.9-185.9L1175.2,2570.7z"/>
	<path class="st0" d="M2500,2815.9c135.2,0,245.2-110,245.2-245.2c0-135.2-110-245.2-245.2-245.2c-135.2,0-245.2,110-245.2,245.2
		C2254.8,2705.9,2364.8,2815.9,2500,2815.9z M2500,2406.4c90.6,0,164.3,73.7,164.3,164.3c0,90.6-73.7,164.3-164.3,164.3
		c-90.6,0-164.3-73.7-164.3-164.3C2335.8,2480.1,2409.5,2406.4,2500,2406.4z"/>
</g>
</svg>
