<?xml version="1.0" encoding="utf-8"?>
<!-- Generator: Adobe Illustrator 22.1.0, SVG Export Plug-In . SVG Version: 6.00 Build 0)  -->
<svg version="1.1" xmlns="http://www.w3.org/2000/svg" xmlns:xlink="http://www.w3.org/1999/xlink" x="0px" y="0px"
	 viewBox="0 0 474 265" style="enable-background:new 0 0 474 265;" xml:space="preserve">
<style type="text/css">
	.st0{fill:#FFFFFF;}
</style>
<g id="_x2014_ÎÓÈ_1">
</g>
<g id="_x2014_ÎÓÈ_2">
	<g>
		<path class="st0" d="M35.8,112.8c9.8,1,17.5,9.9,17.5,20.2c0,10.3-7.7,19.1-17.5,20.2c-2.5,0.3-10.3,0-10.4,0l-0.1,1.5
			c0.2,0,3.6,0.1,6.6,0.1c1.6,0,3.1,0,4-0.1c10.6-1.1,18.9-10.6,18.9-21.6c0-11-8.3-20.6-18.9-21.6c-2.6-0.3-10.3,0-10.6,0l0.1,1.5
			C25.5,112.8,33.2,112.5,35.8,112.8z"/>
		<path class="st0" d="M91.6,106l-0.5-1.4c-1,0.4-2,0.8-2.9,1.3l0.7,1.3C89.7,106.8,90.6,106.4,91.6,106z"/>
		<path class="st0" d="M97.3,161.5c-1-0.2-2-0.4-3-0.6l-0.4,1.4c1,0.3,2.1,0.5,3.1,0.7L97.3,161.5z"/>
		<path class="st0" d="M91.5,159.9c-0.9-0.4-1.9-0.8-2.8-1.2l-0.7,1.3c0.9,0.5,1.9,0.9,2.9,1.3L91.5,159.9z"/>
		<path class="st0" d="M74.8,146.7c0.5,0.9,1,1.9,1.6,2.8l1.3-0.8c-0.5-0.8-1.1-1.7-1.5-2.6L74.8,146.7z"/>
		<path class="st0" d="M97.4,104.5l-0.2-1.5c-1,0.2-2.1,0.4-3.1,0.7l0.4,1.5C95.4,104.8,96.4,104.6,97.4,104.5z"/>
		<path class="st0" d="M74,140.4l-1.4,0.4c0.3,1,0.6,2,1,3l1.4-0.5C74.6,142.3,74.2,141.4,74,140.4z"/>
		<path class="st0" d="M73.4,128.4l-1.5-0.2c-0.2,1-0.3,2.1-0.3,3.2l1.5,0.1C73.1,130.4,73.2,129.4,73.4,128.4z"/>
		<path class="st0" d="M74.9,122.6l-1.4-0.5c-0.4,1-0.7,2-1,3l1.4,0.4C74.3,124.5,74.6,123.5,74.9,122.6z"/>
		<path class="st0" d="M73.4,137.5c-0.2-1-0.3-2-0.3-3l-1.5,0.1c0.1,1.1,0.2,2.1,0.3,3.2L73.4,137.5z"/>
		<path class="st0" d="M86.2,108.8l-0.8-1.3c-0.9,0.6-1.7,1.2-2.6,1.9l0.9,1.2C84.5,109.9,85.3,109.3,86.2,108.8z"/>
		<path class="st0" d="M77.7,117.2l-1.3-0.8c-0.6,0.9-1.1,1.8-1.6,2.7l1.3,0.7C76.6,118.9,77.1,118.1,77.7,117.2z"/>
		<path class="st0" d="M86.1,157.2c-0.8-0.5-1.7-1.1-2.4-1.8l-0.9,1.2c0.8,0.7,1.7,1.3,2.6,1.9L86.1,157.2z"/>
		<path class="st0" d="M81.5,112.5l-1.1-1.1c-0.7,0.7-1.5,1.5-2.1,2.4l1.2,0.9C80.1,114,80.8,113.3,81.5,112.5z"/>
		<path class="st0" d="M81.5,153.4c-0.7-0.7-1.4-1.5-2-2.2l-1.2,0.9c0.7,0.8,1.4,1.6,2.1,2.4L81.5,153.4z"/>
		<path class="st0" d="M26.1,147.7v-13.1h2c0.7,1.7,2.3,2.9,4.2,2.9c2.5,0,4.6-2,4.6-4.6c0-2.5-2-4.6-4.6-4.6
			c-1.9,0-3.6,1.2-4.2,2.9h-2v-13.1h-1.5v29.5H26.1z M32.4,129.9c1.7,0,3.1,1.4,3.1,3.1S34,136,32.4,136c-1.7,0-3.1-1.4-3.1-3.1
			S30.7,129.9,32.4,129.9z"/>
		<path class="st0" d="M438.2,153.1c-9.8-1-17.5-9.9-17.5-20.2c0-10.3,7.7-19.1,17.5-20.2c2.5-0.3,10.3,0,10.4,0l0.1-1.5
			c-0.3,0-8-0.3-10.6,0c-10.6,1.1-18.9,10.6-18.9,21.6c0,11,8.3,20.6,18.9,21.6c0.9,0.1,2.4,0.1,4,0.1c3,0,6.4-0.1,6.6-0.1l-0.1-1.5
			C448.5,153.1,440.8,153.4,438.2,153.1z"/>
		<path class="st0" d="M468.9,93h-0.2V8.4H331.3V3.8h-1.5v4.6H144.2V3.8h-1.5v4.6H5.3V93H5.1v79.8h0.2v84.7h137.4v4.6h1.5v-4.6
			h185.5v4.6h1.5v-4.6h137.4v-84.7h0.2V93z M372.9,171.4v-8.1c0.3,0,0.5,0,0.8,0l-0.1-1.5c-0.2,0-0.5,0-0.7,0v-57.7
			c0.2,0,0.5,0,0.7,0l0.1-1.5c-0.3,0-0.5,0-0.8,0v-8.1h94.3v76.8H372.9z M371.4,161.8c-15.6-0.4-28.1-13.2-28.1-28.8
			c0-15.7,12.5-28.4,28.1-28.8V161.8z M236.2,161.8c-15.6-0.4-28.1-13.2-28.1-28.8c0-15.7,12.5-28.4,28.1-28.8V161.8z M237.7,104.1
			c15.6,0.4,28.1,13.2,28.1,28.8c0,15.7-12.5,28.4-28.1,28.8V104.1z M101.1,94.5v8.1c-0.3,0-0.5,0-0.8,0l0.1,1.5c0.2,0,0.5,0,0.7,0
			v57.7c-0.2,0-0.5,0-0.7,0l-0.1,1.5c0.3,0,0.5,0,0.8,0v8.1H6.8V94.5H101.1z M102.6,104.1c15.6,0.4,28.1,13.2,28.1,28.8
			c0,15.7-12.5,28.4-28.1,28.8V104.1z M6.8,172.9h28v1.8h1.5v-1.8h13.7v1.8h6.8v-1.8h13.6v1.8h1.5v-1.8h13.3v1.8h1.5v-1.8h16v-9.6
			c16.4-0.4,29.6-13.8,29.6-30.3c0-16.5-13.2-29.9-29.6-30.3V93h-16v-1.8h-1.5V93H71.8v-1.8h-1.5V93H56.7v-1.8h-6.8V93H36.3v-1.8
			h-1.5V93h-28V24.9c5.8-0.2,38-1.2,49.3,0c48.6,5.5,86.7,52.9,86.7,108.1c0,55.1-38.1,102.6-86.7,108c-11.2,1.3-43.5,0.2-49.3,0
			V172.9z M142.7,251.5v4.6H6.8v-13.5c3.8,0.1,18,0.6,30.8,0.6c7.5,0,14.5-0.2,18.7-0.6c49.3-5.5,88-53.7,88-109.5
			c0-55.9-38.6-104-88-109.5c-11.3-1.3-43.5-0.2-49.4,0V9.9h135.9v4.6h1.5V9.9h92v92.8c-16.4,0.4-29.6,13.8-29.6,30.3
			c0,16.5,13.2,29.9,29.6,30.3V256h-92v-4.6H142.7z M331.3,256v-4.6h-1.5v4.6h-92v-92.8c16.4-0.4,29.6-13.8,29.6-30.3
			c0-16.5-13.2-29.9-29.6-30.3V9.9h92v4.6h1.5V9.9h135.9v13.5c-5.9-0.2-38.1-1.2-49.4,0c-49.3,5.5-88,53.7-88,109.5
			c0,55.9,38.6,104,88,109.5c4.2,0.5,11.2,0.6,18.7,0.6c12.8,0,27-0.5,30.8-0.6V256H331.3z M467.2,241c-5.8,0.2-38,1.2-49.3,0
			c-48.6-5.5-86.7-52.9-86.7-108c0-55.1,38.1-102.6,86.7-108.1c11.2-1.3,43.5-0.2,49.3,0V93h-28v-1.8h-1.5V93h-13.7v-1.8h-6.8V93
			h-13.6v-1.8h-1.5V93h-13.3v-1.8h-1.5V93h-16v9.6c-16.4,0.4-29.6,13.8-29.6,30.3c0,16.5,13.2,29.9,29.6,30.3v9.6h16v1.8h1.5v-1.8
			h13.3v1.8h1.5v-1.8h13.6v1.8h6.8v-1.8h13.7v1.8h1.5v-1.8h28V241z"/>
		<path class="st0" d="M385.9,105.9c-0.9-0.5-1.9-0.9-2.9-1.3l-0.5,1.4c0.9,0.4,1.9,0.8,2.8,1.2L385.9,105.9z"/>
		<path class="st0" d="M391.2,109.4c-0.8-0.7-1.7-1.3-2.6-1.9l-0.8,1.3c0.8,0.5,1.7,1.1,2.4,1.8L391.2,109.4z"/>
		<path class="st0" d="M382.5,159.9l0.5,1.4c1-0.4,2-0.8,2.9-1.3l-0.7-1.3C384.4,159.1,383.4,159.5,382.5,159.9z"/>
		<path class="st0" d="M400,125.5l1.4-0.4c-0.3-1-0.6-2-1-3l-1.4,0.5C399.4,123.5,399.7,124.5,400,125.5z"/>
		<path class="st0" d="M387.9,157.2l0.8,1.3c0.9-0.6,1.7-1.2,2.6-1.9l-0.9-1.2C389.5,156,388.7,156.6,387.9,157.2z"/>
		<path class="st0" d="M380,103.6c-1-0.3-2.1-0.5-3.1-0.7l-0.2,1.5c1,0.2,2,0.4,3,0.6L380,103.6z"/>
		<path class="st0" d="M400.9,131.4l1.5-0.1c-0.1-1.1-0.2-2.1-0.3-3.2l-1.5,0.2C400.8,129.4,400.9,130.4,400.9,131.4z"/>
		<path class="st0" d="M376.7,161.5l0.2,1.5c1-0.2,2.1-0.4,3.1-0.7l-0.4-1.4C378.7,161.1,377.7,161.3,376.7,161.5z"/>
		<path class="st0" d="M395.7,113.8c-0.7-0.8-1.4-1.6-2.1-2.4l-1.1,1.1c0.7,0.7,1.4,1.5,2,2.2L395.7,113.8z"/>
		<path class="st0" d="M400.6,137.5l1.5,0.2c0.2-1,0.3-2.1,0.3-3.2l-1.5-0.1C400.9,135.5,400.8,136.5,400.6,137.5z"/>
		<path class="st0" d="M396.3,148.7l1.3,0.8c0.6-0.9,1.1-1.8,1.6-2.8l-1.3-0.7C397.4,146.9,396.9,147.8,396.3,148.7z"/>
		<path class="st0" d="M399.1,143.3l1.4,0.5c0.4-1,0.7-2,1-3l-1.4-0.4C399.8,141.4,399.4,142.4,399.1,143.3z"/>
		<path class="st0" d="M392.5,153.4l1.1,1.1c0.7-0.7,1.5-1.5,2.1-2.4l-1.2-0.9C393.9,151.9,393.3,152.6,392.5,153.4z"/>
		<path class="st0" d="M399.2,119.2c-0.5-0.9-1-1.9-1.6-2.7l-1.3,0.8c0.6,0.8,1.1,1.7,1.5,2.6L399.2,119.2z"/>
		<path class="st0" d="M447.9,118.2v13.1h-2c-0.7-1.7-2.3-2.9-4.2-2.9c-2.5,0-4.6,2-4.6,4.6c0,2.5,2,4.6,4.6,4.6
			c1.9,0,3.6-1.2,4.2-2.9h2v13.1h1.5v-29.5H447.9z M441.6,136c-1.7,0-3.1-1.4-3.1-3.1s1.4-3.1,3.1-3.1c1.7,0,3.1,1.4,3.1,3.1
			S443.3,136,441.6,136z"/>
	</g>
</g>
</svg>
