<?xml version="1.0" encoding="utf-8"?>
<!-- Generator: Adobe Illustrator 22.1.0, SVG Export Plug-In . SVG Version: 6.00 Build 0)  -->
<svg version="1.1" xmlns="http://www.w3.org/2000/svg" xmlns:xlink="http://www.w3.org/1999/xlink" x="0px" y="0px"
	 viewBox="0 0 3500 2000" style="enable-background:new 0 0 3500 2000;" xml:space="preserve">
<style type="text/css">
	.st0{fill:#FFFFFF;}
</style>
<g id="Layer_3">
</g>
<g id="Layer_1">
</g>
<g id="Layer_6">
	<g>
		<g>
			<path class="st0" d="M76.9,92.7v1812.9h3350.6V92.7H76.9z M3402.1,1885.4H102.3V112.9h3299.7V1885.4z"/>
		</g>
		<g>
			<rect x="3385" y="815.6" class="st0" width="57" height="22.5"/>
			<rect x="3385" y="1160.6" class="st0" width="57" height="22.5"/>
		</g>
		<g>
			<rect x="56.7" y="815.6" class="st0" width="57" height="22.5"/>
			<rect x="56.7" y="1160.6" class="st0" width="57" height="22.5"/>
		</g>
		<rect x="495.6" y="109" class="st0" width="12" height="1780"/>
		<rect x="357" y="109" class="st0" width="12" height="1780"/>
		<rect x="634.2" y="109" class="st0" width="12" height="1780"/>
		<rect x="772.8" y="109" class="st0" width="12" height="1780"/>
		<rect x="911.5" y="109" class="st0" width="12" height="1780"/>
		<rect x="1050.1" y="109" class="st0" width="12" height="1780"/>
		<rect x="1188.7" y="109" class="st0" width="12" height="1780"/>
		<rect x="1327.3" y="109" class="st0" width="12" height="1780"/>
		<rect x="1465.9" y="109" class="st0" width="12" height="1780"/>
		<rect x="1604.5" y="109" class="st0" width="12" height="1780"/>
		<rect x="1743.2" y="109" class="st0" width="12" height="1780"/>
		<rect x="1881.8" y="109" class="st0" width="12" height="1780"/>
		<rect x="2020.4" y="109" class="st0" width="12" height="1780"/>
		<rect x="2159" y="109" class="st0" width="12" height="1780"/>
		<rect x="2297.5" y="109" class="st0" width="12" height="1780"/>
		<rect x="2436.1" y="109" class="st0" width="12" height="1780"/>
		<rect x="2574.7" y="109" class="st0" width="12" height="1780"/>
		<rect x="2713.3" y="109" class="st0" width="12" height="1780"/>
		<rect x="2851.8" y="109" class="st0" width="12" height="1780"/>
		<rect x="2990.4" y="109" class="st0" width="12" height="1780"/>
		<rect x="3129" y="109" class="st0" width="12" height="1780"/>
		<rect x="413.1" y="948.8" class="st0" width="11.6" height="103.8"/>
		<rect x="3069.1" y="948.8" class="st0" width="11.6" height="103.8"/>
		<g>
			<rect x="470.3" y="1819.7" class="st0" width="10.7" height="52"/>
			<rect x="383.6" y="1819.7" class="st0" width="10.7" height="52"/>
			<rect x="412.5" y="1819.7" class="st0" width="10.7" height="52"/>
			<rect x="441.4" y="1819.7" class="st0" width="10.7" height="52"/>
		</g>
		<g>
			<rect x="608.9" y="1819.7" class="st0" width="10.7" height="52"/>
			<rect x="522.2" y="1819.7" class="st0" width="10.7" height="52"/>
			<rect x="551.1" y="1819.7" class="st0" width="10.7" height="52"/>
			<rect x="580" y="1819.7" class="st0" width="10.7" height="52"/>
		</g>
		<g>
			<rect x="747.5" y="1819.7" class="st0" width="10.7" height="52"/>
			<rect x="660.8" y="1819.7" class="st0" width="10.7" height="52"/>
			<rect x="689.7" y="1819.7" class="st0" width="10.7" height="52"/>
			<rect x="718.6" y="1819.7" class="st0" width="10.7" height="52"/>
		</g>
		<g>
			<rect x="886.1" y="1819.7" class="st0" width="10.7" height="52"/>
			<rect x="799.4" y="1819.7" class="st0" width="10.7" height="52"/>
			<rect x="828.3" y="1819.7" class="st0" width="10.7" height="52"/>
			<rect x="857.2" y="1819.7" class="st0" width="10.7" height="52"/>
		</g>
		<g>
			<rect x="1024.7" y="1819.7" class="st0" width="10.7" height="52"/>
			<rect x="938" y="1819.7" class="st0" width="10.7" height="52"/>
			<rect x="966.9" y="1819.7" class="st0" width="10.7" height="52"/>
			<rect x="995.8" y="1819.7" class="st0" width="10.7" height="52"/>
		</g>
		<g>
			<rect x="1163.3" y="1819.7" class="st0" width="10.7" height="52"/>
			<rect x="1076.6" y="1819.7" class="st0" width="10.7" height="52"/>
			<rect x="1105.5" y="1819.7" class="st0" width="10.7" height="52"/>
			<rect x="1134.4" y="1819.7" class="st0" width="10.7" height="52"/>
		</g>
		<g>
			<rect x="1301.9" y="1819.7" class="st0" width="10.7" height="52"/>
			<rect x="1215.2" y="1819.7" class="st0" width="10.7" height="52"/>
			<rect x="1244.1" y="1819.7" class="st0" width="10.7" height="52"/>
			<rect x="1273" y="1819.7" class="st0" width="10.7" height="52"/>
		</g>
		<g>
			<rect x="1440.5" y="1819.7" class="st0" width="10.7" height="52"/>
			<rect x="1353.8" y="1819.7" class="st0" width="10.7" height="52"/>
			<rect x="1382.7" y="1819.7" class="st0" width="10.7" height="52"/>
			<rect x="1411.6" y="1819.7" class="st0" width="10.7" height="52"/>
		</g>
		<g>
			<rect x="1579.1" y="1819.7" class="st0" width="10.7" height="52"/>
			<rect x="1492.4" y="1819.7" class="st0" width="10.7" height="52"/>
			<rect x="1521.3" y="1819.7" class="st0" width="10.7" height="52"/>
			<rect x="1550.2" y="1819.7" class="st0" width="10.7" height="52"/>
		</g>
		<g>
			<rect x="1717.7" y="1819.7" class="st0" width="10.7" height="52"/>
			<rect x="1631" y="1819.7" class="st0" width="10.7" height="52"/>
			<rect x="1659.9" y="1819.7" class="st0" width="10.7" height="52"/>
			<rect x="1688.8" y="1819.7" class="st0" width="10.7" height="52"/>
		</g>
		<g>
			<rect x="1856.3" y="1819.7" class="st0" width="10.7" height="52"/>
			<rect x="1769.6" y="1819.7" class="st0" width="10.7" height="52"/>
			<rect x="1798.5" y="1819.7" class="st0" width="10.7" height="52"/>
			<rect x="1827.4" y="1819.7" class="st0" width="10.7" height="52"/>
		</g>
		<g>
			<rect x="1994.9" y="1819.7" class="st0" width="10.7" height="52"/>
			<rect x="1908.2" y="1819.7" class="st0" width="10.7" height="52"/>
			<rect x="1937.1" y="1819.7" class="st0" width="10.7" height="52"/>
			<rect x="1966" y="1819.7" class="st0" width="10.7" height="52"/>
		</g>
		<g>
			<rect x="2133.5" y="1819.7" class="st0" width="10.7" height="52"/>
			<rect x="2046.8" y="1819.7" class="st0" width="10.7" height="52"/>
			<rect x="2075.7" y="1819.7" class="st0" width="10.7" height="52"/>
			<rect x="2104.6" y="1819.7" class="st0" width="10.7" height="52"/>
		</g>
		<g>
			<rect x="2272.1" y="1819.7" class="st0" width="10.7" height="52"/>
			<rect x="2185.4" y="1819.7" class="st0" width="10.7" height="52"/>
			<rect x="2214.3" y="1819.7" class="st0" width="10.7" height="52"/>
			<rect x="2243.2" y="1819.7" class="st0" width="10.7" height="52"/>
		</g>
		<g>
			<rect x="2410.7" y="1819.7" class="st0" width="10.7" height="52"/>
			<rect x="2324" y="1819.7" class="st0" width="10.7" height="52"/>
			<rect x="2352.9" y="1819.7" class="st0" width="10.7" height="52"/>
			<rect x="2381.8" y="1819.7" class="st0" width="10.7" height="52"/>
		</g>
		<g>
			<rect x="2549.3" y="1819.7" class="st0" width="10.7" height="52"/>
			<rect x="2462.6" y="1819.7" class="st0" width="10.7" height="52"/>
			<rect x="2491.5" y="1819.7" class="st0" width="10.7" height="52"/>
			<rect x="2520.4" y="1819.7" class="st0" width="10.7" height="52"/>
		</g>
		<g>
			<rect x="2687.9" y="1819.7" class="st0" width="10.7" height="52"/>
			<rect x="2601.2" y="1819.7" class="st0" width="10.7" height="52"/>
			<rect x="2630.1" y="1819.7" class="st0" width="10.7" height="52"/>
			<rect x="2659" y="1819.7" class="st0" width="10.7" height="52"/>
		</g>
		<g>
			<rect x="2826.5" y="1819.7" class="st0" width="10.7" height="52"/>
			<rect x="2739.8" y="1819.7" class="st0" width="10.7" height="52"/>
			<rect x="2768.7" y="1819.7" class="st0" width="10.7" height="52"/>
			<rect x="2797.6" y="1819.7" class="st0" width="10.7" height="52"/>
		</g>
		<g>
			<rect x="2965.1" y="1819.7" class="st0" width="10.7" height="52"/>
			<rect x="2878.4" y="1819.7" class="st0" width="10.7" height="52"/>
			<rect x="2907.3" y="1819.7" class="st0" width="10.7" height="52"/>
			<rect x="2936.2" y="1819.7" class="st0" width="10.7" height="52"/>
		</g>
		<g>
			<rect x="3103.7" y="1819.7" class="st0" width="10.7" height="52"/>
			<rect x="3017" y="1819.7" class="st0" width="10.7" height="52"/>
			<rect x="3045.9" y="1819.7" class="st0" width="10.7" height="52"/>
			<rect x="3074.8" y="1819.7" class="st0" width="10.7" height="52"/>
		</g>
		<g>
			<rect x="3103.7" y="1228.7" class="st0" width="10.7" height="52"/>
			<rect x="3017" y="1228.7" class="st0" width="10.7" height="52"/>
			<rect x="3045.9" y="1228.7" class="st0" width="10.7" height="52"/>
			<rect x="3074.8" y="1228.7" class="st0" width="10.7" height="52"/>
		</g>
		<g>
			<rect x="2965.1" y="1228.7" class="st0" width="10.7" height="52"/>
			<rect x="2878.4" y="1228.7" class="st0" width="10.7" height="52"/>
			<rect x="2907.3" y="1228.7" class="st0" width="10.7" height="52"/>
			<rect x="2936.2" y="1228.7" class="st0" width="10.7" height="52"/>
		</g>
		<g>
			<rect x="2826.5" y="1228.7" class="st0" width="10.7" height="52"/>
			<rect x="2739.9" y="1228.7" class="st0" width="10.7" height="52"/>
			<rect x="2768.7" y="1228.7" class="st0" width="10.7" height="52"/>
			<rect x="2797.6" y="1228.7" class="st0" width="10.7" height="52"/>
		</g>
		<g>
			<rect x="2688" y="1228.7" class="st0" width="10.7" height="52"/>
			<rect x="2601.3" y="1228.7" class="st0" width="10.7" height="52"/>
			<rect x="2630.2" y="1228.7" class="st0" width="10.7" height="52"/>
			<rect x="2659.1" y="1228.7" class="st0" width="10.7" height="52"/>
		</g>
		<g>
			<rect x="2549.4" y="1228.7" class="st0" width="10.7" height="52"/>
			<rect x="2462.7" y="1228.7" class="st0" width="10.7" height="52"/>
			<rect x="2491.6" y="1228.7" class="st0" width="10.7" height="52"/>
			<rect x="2520.5" y="1228.7" class="st0" width="10.7" height="52"/>
		</g>
		<g>
			<rect x="2410.8" y="1228.7" class="st0" width="10.7" height="52"/>
			<rect x="2324.2" y="1228.7" class="st0" width="10.7" height="52"/>
			<rect x="2353.1" y="1228.7" class="st0" width="10.7" height="52"/>
			<rect x="2382" y="1228.7" class="st0" width="10.7" height="52"/>
		</g>
		<g>
			<rect x="2272.3" y="1228.7" class="st0" width="10.7" height="52"/>
			<rect x="2185.6" y="1228.7" class="st0" width="10.7" height="52"/>
			<rect x="2214.5" y="1228.7" class="st0" width="10.7" height="52"/>
			<rect x="2243.4" y="1228.7" class="st0" width="10.7" height="52"/>
		</g>
		<g>
			<rect x="2133.7" y="1228.7" class="st0" width="10.7" height="52"/>
			<rect x="2047.1" y="1228.7" class="st0" width="10.7" height="52"/>
			<rect x="2076" y="1228.7" class="st0" width="10.7" height="52"/>
			<rect x="2104.8" y="1228.7" class="st0" width="10.7" height="52"/>
		</g>
		<g>
			<rect x="1995.2" y="1228.7" class="st0" width="10.7" height="52"/>
			<rect x="1908.5" y="1228.7" class="st0" width="10.7" height="52"/>
			<rect x="1937.4" y="1228.7" class="st0" width="10.7" height="52"/>
			<rect x="1966.3" y="1228.7" class="st0" width="10.7" height="52"/>
		</g>
		<g>
			<rect x="1856.6" y="1228.7" class="st0" width="10.7" height="52"/>
			<rect x="1769.9" y="1228.7" class="st0" width="10.7" height="52"/>
			<rect x="1798.8" y="1228.7" class="st0" width="10.7" height="52"/>
			<rect x="1827.7" y="1228.7" class="st0" width="10.7" height="52"/>
		</g>
		<g>
			<rect x="1717.9" y="1228.7" class="st0" width="10.7" height="52"/>
			<rect x="1631.3" y="1228.7" class="st0" width="10.7" height="52"/>
			<rect x="1660.2" y="1228.7" class="st0" width="10.7" height="52"/>
			<rect x="1689" y="1228.7" class="st0" width="10.7" height="52"/>
		</g>
		<g>
			<rect x="1579.3" y="1228.7" class="st0" width="10.7" height="52"/>
			<rect x="1492.6" y="1228.7" class="st0" width="10.7" height="52"/>
			<rect x="1521.5" y="1228.7" class="st0" width="10.7" height="52"/>
			<rect x="1550.4" y="1228.7" class="st0" width="10.7" height="52"/>
		</g>
		<g>
			<rect x="1440.7" y="1228.7" class="st0" width="10.7" height="52"/>
			<rect x="1354" y="1228.7" class="st0" width="10.7" height="52"/>
			<rect x="1382.9" y="1228.7" class="st0" width="10.7" height="52"/>
			<rect x="1411.8" y="1228.7" class="st0" width="10.7" height="52"/>
		</g>
		<g>
			<rect x="1302.1" y="1228.7" class="st0" width="10.7" height="52"/>
			<rect x="1215.4" y="1228.7" class="st0" width="10.7" height="52"/>
			<rect x="1244.3" y="1228.7" class="st0" width="10.7" height="52"/>
			<rect x="1273.2" y="1228.7" class="st0" width="10.7" height="52"/>
		</g>
		<g>
			<rect x="1163.4" y="1228.7" class="st0" width="10.7" height="52"/>
			<rect x="1076.8" y="1228.7" class="st0" width="10.7" height="52"/>
			<rect x="1105.7" y="1228.7" class="st0" width="10.7" height="52"/>
			<rect x="1134.5" y="1228.7" class="st0" width="10.7" height="52"/>
		</g>
		<g>
			<rect x="1024.8" y="1228.7" class="st0" width="10.7" height="52"/>
			<rect x="938.1" y="1228.7" class="st0" width="10.7" height="52"/>
			<rect x="967" y="1228.7" class="st0" width="10.7" height="52"/>
			<rect x="995.9" y="1228.7" class="st0" width="10.7" height="52"/>
		</g>
		<g>
			<rect x="886.2" y="1228.7" class="st0" width="10.7" height="52"/>
			<rect x="799.5" y="1228.7" class="st0" width="10.7" height="52"/>
			<rect x="828.4" y="1228.7" class="st0" width="10.7" height="52"/>
			<rect x="857.3" y="1228.7" class="st0" width="10.7" height="52"/>
		</g>
		<g>
			<rect x="747.6" y="1228.7" class="st0" width="10.7" height="52"/>
			<rect x="660.9" y="1228.7" class="st0" width="10.7" height="52"/>
			<rect x="689.8" y="1228.7" class="st0" width="10.7" height="52"/>
			<rect x="718.7" y="1228.7" class="st0" width="10.7" height="52"/>
		</g>
		<g>
			<rect x="608.9" y="1228.7" class="st0" width="10.7" height="52"/>
			<rect x="522.3" y="1228.7" class="st0" width="10.7" height="52"/>
			<rect x="551.2" y="1228.7" class="st0" width="10.7" height="52"/>
			<rect x="580" y="1228.7" class="st0" width="10.7" height="52"/>
		</g>
		<g>
			<rect x="470.3" y="1228.7" class="st0" width="10.7" height="52"/>
			<rect x="383.6" y="1228.7" class="st0" width="10.7" height="52"/>
			<rect x="412.5" y="1228.7" class="st0" width="10.7" height="52"/>
			<rect x="441.4" y="1228.7" class="st0" width="10.7" height="52"/>
		</g>
		<g>
			<rect x="470.3" y="717.6" class="st0" width="10.7" height="52"/>
			<rect x="383.6" y="717.6" class="st0" width="10.7" height="52"/>
			<rect x="412.5" y="717.6" class="st0" width="10.7" height="52"/>
			<rect x="441.4" y="717.6" class="st0" width="10.7" height="52"/>
		</g>
		<g>
			<rect x="470.3" y="131" class="st0" width="10.7" height="52"/>
			<rect x="383.6" y="131" class="st0" width="10.7" height="52"/>
			<rect x="412.5" y="131" class="st0" width="10.7" height="52"/>
			<rect x="441.4" y="131" class="st0" width="10.7" height="52"/>
		</g>
		<g>
			<rect x="608.9" y="131" class="st0" width="10.7" height="52"/>
			<rect x="522.3" y="131" class="st0" width="10.7" height="52"/>
			<rect x="551.1" y="131" class="st0" width="10.7" height="52"/>
			<rect x="580" y="131" class="st0" width="10.7" height="52"/>
		</g>
		<g>
			<rect x="747.5" y="131" class="st0" width="10.7" height="52"/>
			<rect x="660.9" y="131" class="st0" width="10.7" height="52"/>
			<rect x="689.8" y="131" class="st0" width="10.7" height="52"/>
			<rect x="718.7" y="131" class="st0" width="10.7" height="52"/>
		</g>
		<g>
			<rect x="886.2" y="131" class="st0" width="10.7" height="52"/>
			<rect x="799.5" y="131" class="st0" width="10.7" height="52"/>
			<rect x="828.4" y="131" class="st0" width="10.7" height="52"/>
			<rect x="857.3" y="131" class="st0" width="10.7" height="52"/>
		</g>
		<g>
			<rect x="1024.8" y="131" class="st0" width="10.7" height="52"/>
			<rect x="938.1" y="131" class="st0" width="10.7" height="52"/>
			<rect x="967" y="131" class="st0" width="10.7" height="52"/>
			<rect x="995.9" y="131" class="st0" width="10.7" height="52"/>
		</g>
		<g>
			<rect x="1163.4" y="131" class="st0" width="10.7" height="52"/>
			<rect x="1076.7" y="131" class="st0" width="10.7" height="52"/>
			<rect x="1105.6" y="131" class="st0" width="10.7" height="52"/>
			<rect x="1134.5" y="131" class="st0" width="10.7" height="52"/>
		</g>
		<g>
			<rect x="1302" y="131" class="st0" width="10.7" height="52"/>
			<rect x="1215.3" y="131" class="st0" width="10.7" height="52"/>
			<rect x="1244.2" y="131" class="st0" width="10.7" height="52"/>
			<rect x="1273.1" y="131" class="st0" width="10.7" height="52"/>
		</g>
		<g>
			<rect x="1440.6" y="131" class="st0" width="10.7" height="52"/>
			<rect x="1354" y="131" class="st0" width="10.7" height="52"/>
			<rect x="1382.8" y="131" class="st0" width="10.7" height="52"/>
			<rect x="1411.7" y="131" class="st0" width="10.7" height="52"/>
		</g>
		<g>
			<rect x="1579.2" y="131" class="st0" width="10.7" height="52"/>
			<rect x="1492.6" y="131" class="st0" width="10.7" height="52"/>
			<rect x="1521.5" y="131" class="st0" width="10.7" height="52"/>
			<rect x="1550.4" y="131" class="st0" width="10.7" height="52"/>
		</g>
		<g>
			<rect x="1717.9" y="131" class="st0" width="10.7" height="52"/>
			<rect x="1631.2" y="131" class="st0" width="10.7" height="52"/>
			<rect x="1660.1" y="131" class="st0" width="10.7" height="52"/>
			<rect x="1689" y="131" class="st0" width="10.7" height="52"/>
		</g>
		<g>
			<rect x="1856.5" y="131" class="st0" width="10.7" height="52"/>
			<rect x="1769.8" y="131" class="st0" width="10.7" height="52"/>
			<rect x="1798.7" y="131" class="st0" width="10.7" height="52"/>
			<rect x="1827.6" y="131" class="st0" width="10.7" height="52"/>
		</g>
		<g>
			<rect x="1995.1" y="131" class="st0" width="10.7" height="52"/>
			<rect x="1908.4" y="131" class="st0" width="10.7" height="52"/>
			<rect x="1937.3" y="131" class="st0" width="10.7" height="52"/>
			<rect x="1966.2" y="131" class="st0" width="10.7" height="52"/>
		</g>
		<g>
			<rect x="608.9" y="717.6" class="st0" width="10.7" height="52"/>
			<rect x="522.3" y="717.6" class="st0" width="10.7" height="52"/>
			<rect x="551.1" y="717.6" class="st0" width="10.7" height="52"/>
			<rect x="580" y="717.6" class="st0" width="10.7" height="52"/>
		</g>
		<g>
			<rect x="747.5" y="717.6" class="st0" width="10.7" height="52"/>
			<rect x="660.9" y="717.6" class="st0" width="10.7" height="52"/>
			<rect x="689.8" y="717.6" class="st0" width="10.7" height="52"/>
			<rect x="718.7" y="717.6" class="st0" width="10.7" height="52"/>
		</g>
		<g>
			<rect x="886.2" y="717.6" class="st0" width="10.7" height="52"/>
			<rect x="799.5" y="717.6" class="st0" width="10.7" height="52"/>
			<rect x="828.4" y="717.6" class="st0" width="10.7" height="52"/>
			<rect x="857.3" y="717.6" class="st0" width="10.7" height="52"/>
		</g>
		<g>
			<rect x="1024.8" y="717.6" class="st0" width="10.7" height="52"/>
			<rect x="938.1" y="717.6" class="st0" width="10.7" height="52"/>
			<rect x="967" y="717.6" class="st0" width="10.7" height="52"/>
			<rect x="995.9" y="717.6" class="st0" width="10.7" height="52"/>
		</g>
		<g>
			<rect x="1163.4" y="717.6" class="st0" width="10.7" height="52"/>
			<rect x="1076.7" y="717.6" class="st0" width="10.7" height="52"/>
			<rect x="1105.6" y="717.6" class="st0" width="10.7" height="52"/>
			<rect x="1134.5" y="717.6" class="st0" width="10.7" height="52"/>
		</g>
		<g>
			<rect x="1302" y="717.6" class="st0" width="10.7" height="52"/>
			<rect x="1215.3" y="717.6" class="st0" width="10.7" height="52"/>
			<rect x="1244.2" y="717.6" class="st0" width="10.7" height="52"/>
			<rect x="1273.1" y="717.6" class="st0" width="10.7" height="52"/>
		</g>
		<g>
			<rect x="1440.6" y="717.6" class="st0" width="10.7" height="52"/>
			<rect x="1354" y="717.6" class="st0" width="10.7" height="52"/>
			<rect x="1382.8" y="717.6" class="st0" width="10.7" height="52"/>
			<rect x="1411.7" y="717.6" class="st0" width="10.7" height="52"/>
		</g>
		<g>
			<rect x="1579.2" y="717.6" class="st0" width="10.7" height="52"/>
			<rect x="1492.6" y="717.6" class="st0" width="10.7" height="52"/>
			<rect x="1521.5" y="717.6" class="st0" width="10.7" height="52"/>
			<rect x="1550.4" y="717.6" class="st0" width="10.7" height="52"/>
		</g>
		<g>
			<rect x="1717.9" y="717.6" class="st0" width="10.7" height="52"/>
			<rect x="1631.2" y="717.6" class="st0" width="10.7" height="52"/>
			<rect x="1660.1" y="717.6" class="st0" width="10.7" height="52"/>
			<rect x="1689" y="717.6" class="st0" width="10.7" height="52"/>
		</g>
		<g>
			<rect x="1856.5" y="717.6" class="st0" width="10.7" height="52"/>
			<rect x="1769.8" y="717.6" class="st0" width="10.7" height="52"/>
			<rect x="1798.7" y="717.6" class="st0" width="10.7" height="52"/>
			<rect x="1827.6" y="717.6" class="st0" width="10.7" height="52"/>
		</g>
		<g>
			<rect x="1995.1" y="717.6" class="st0" width="10.7" height="52"/>
			<rect x="1908.4" y="717.6" class="st0" width="10.7" height="52"/>
			<rect x="1937.3" y="717.6" class="st0" width="10.7" height="52"/>
			<rect x="1966.2" y="717.6" class="st0" width="10.7" height="52"/>
		</g>
		<g>
			<rect x="2133.7" y="717.6" class="st0" width="10.7" height="52"/>
			<rect x="2047" y="717.6" class="st0" width="10.7" height="52"/>
			<rect x="2075.9" y="717.6" class="st0" width="10.7" height="52"/>
			<rect x="2104.8" y="717.6" class="st0" width="10.7" height="52"/>
		</g>
		<g>
			<rect x="2273.2" y="717.6" class="st0" width="10.7" height="52"/>
			<rect x="2186.5" y="717.6" class="st0" width="10.7" height="52"/>
			<rect x="2215.4" y="717.6" class="st0" width="10.7" height="52"/>
			<rect x="2244.3" y="717.6" class="st0" width="10.7" height="52"/>
		</g>
		<g>
			<rect x="2410.7" y="717.6" class="st0" width="10.7" height="52"/>
			<rect x="2324.1" y="717.6" class="st0" width="10.7" height="52"/>
			<rect x="2352.9" y="717.6" class="st0" width="10.7" height="52"/>
			<rect x="2381.8" y="717.6" class="st0" width="10.7" height="52"/>
		</g>
		<g>
			<rect x="2551.7" y="717.6" class="st0" width="10.7" height="52"/>
			<rect x="2465.1" y="717.6" class="st0" width="10.7" height="52"/>
			<rect x="2493.9" y="717.6" class="st0" width="10.7" height="52"/>
			<rect x="2522.8" y="717.6" class="st0" width="10.7" height="52"/>
		</g>
		<g>
			<rect x="2683.7" y="717.6" class="st0" width="10.7" height="52"/>
			<rect x="2597" y="717.6" class="st0" width="10.7" height="52"/>
			<rect x="2625.9" y="717.6" class="st0" width="10.7" height="52"/>
			<rect x="2654.8" y="717.6" class="st0" width="10.7" height="52"/>
		</g>
		<g>
			<rect x="2826.2" y="717.6" class="st0" width="10.7" height="52"/>
			<rect x="2739.5" y="717.6" class="st0" width="10.7" height="52"/>
			<rect x="2768.4" y="717.6" class="st0" width="10.7" height="52"/>
			<rect x="2797.3" y="717.6" class="st0" width="10.7" height="52"/>
		</g>
		<g>
			<rect x="2826.6" y="132.8" class="st0" width="10.7" height="52"/>
			<rect x="2739.9" y="132.8" class="st0" width="10.7" height="52"/>
			<rect x="2768.8" y="132.8" class="st0" width="10.7" height="52"/>
			<rect x="2797.7" y="132.8" class="st0" width="10.7" height="52"/>
		</g>
		<g>
			<rect x="2688" y="132.8" class="st0" width="10.7" height="52"/>
			<rect x="2601.3" y="132.8" class="st0" width="10.7" height="52"/>
			<rect x="2630.2" y="132.8" class="st0" width="10.7" height="52"/>
			<rect x="2659.1" y="132.8" class="st0" width="10.7" height="52"/>
		</g>
		<g>
			<rect x="2549.4" y="132.8" class="st0" width="10.7" height="52"/>
			<rect x="2462.7" y="132.8" class="st0" width="10.7" height="52"/>
			<rect x="2491.6" y="132.8" class="st0" width="10.7" height="52"/>
			<rect x="2520.5" y="132.8" class="st0" width="10.7" height="52"/>
		</g>
		<g>
			<rect x="2410.8" y="132.8" class="st0" width="10.7" height="52"/>
			<rect x="2324.2" y="132.8" class="st0" width="10.7" height="52"/>
			<rect x="2353.1" y="132.8" class="st0" width="10.7" height="52"/>
			<rect x="2381.9" y="132.8" class="st0" width="10.7" height="52"/>
		</g>
		<g>
			<rect x="2272.3" y="132.8" class="st0" width="10.7" height="52"/>
			<rect x="2185.6" y="132.8" class="st0" width="10.7" height="52"/>
			<rect x="2214.5" y="132.8" class="st0" width="10.7" height="52"/>
			<rect x="2243.4" y="132.8" class="st0" width="10.7" height="52"/>
		</g>
		<g>
			<rect x="2133.7" y="132.8" class="st0" width="10.7" height="52"/>
			<rect x="2047" y="132.8" class="st0" width="10.7" height="52"/>
			<rect x="2075.9" y="132.8" class="st0" width="10.7" height="52"/>
			<rect x="2104.8" y="132.8" class="st0" width="10.7" height="52"/>
		</g>
		<g>
			<rect x="2964.2" y="717.6" class="st0" width="10.7" height="52"/>
			<rect x="2877.5" y="717.6" class="st0" width="10.7" height="52"/>
			<rect x="2906.4" y="717.6" class="st0" width="10.7" height="52"/>
			<rect x="2935.3" y="717.6" class="st0" width="10.7" height="52"/>
		</g>
		<g>
			<rect x="2965.1" y="132.8" class="st0" width="10.7" height="52"/>
			<rect x="2878.5" y="132.8" class="st0" width="10.7" height="52"/>
			<rect x="2907.4" y="132.8" class="st0" width="10.7" height="52"/>
			<rect x="2936.2" y="132.8" class="st0" width="10.7" height="52"/>
		</g>
		<g>
			<rect x="3102.2" y="717.6" class="st0" width="10.7" height="52"/>
			<rect x="3015.5" y="717.6" class="st0" width="10.7" height="52"/>
			<rect x="3044.4" y="717.6" class="st0" width="10.7" height="52"/>
			<rect x="3073.3" y="717.6" class="st0" width="10.7" height="52"/>
		</g>
		<g>
			<rect x="3103.7" y="132.8" class="st0" width="10.7" height="52"/>
			<rect x="3017" y="132.8" class="st0" width="10.7" height="52"/>
			<rect x="3045.9" y="132.8" class="st0" width="10.7" height="52"/>
			<rect x="3074.8" y="132.8" class="st0" width="10.7" height="52"/>
		</g>
		<rect x="506.7" y="383.6" class="st0" width="30" height="13.5"/>
		<rect x="784.1" y="383.6" class="st0" width="30" height="13.5"/>
		<rect x="1060.1" y="383.6" class="st0" width="30" height="13.5"/>
		<rect x="1339.1" y="383.6" class="st0" width="30" height="13.5"/>
		<rect x="2131.1" y="383.6" class="st0" width="30" height="13.5"/>
		<rect x="2405.6" y="383.6" class="st0" width="30" height="13.5"/>
		<rect x="2683" y="383.6" class="st0" width="30" height="13.5"/>
		<rect x="2962" y="383.6" class="st0" width="30" height="13.5"/>
		<rect x="2962" y="1609.8" class="st0" width="30" height="13.5"/>
		<rect x="2683" y="1609.8" class="st0" width="30" height="13.5"/>
		<rect x="2407.1" y="1609.8" class="st0" width="30" height="13.5"/>
		<rect x="2132.6" y="1609.8" class="st0" width="30" height="13.5"/>
		<rect x="1336.1" y="1609.8" class="st0" width="30" height="13.5"/>
		<rect x="1060.1" y="1609.8" class="st0" width="30" height="13.5"/>
		<rect x="782.6" y="1609.8" class="st0" width="30" height="13.5"/>
		<rect x="508.2" y="1609.8" class="st0" width="30" height="13.5"/>
		<g>
			<g>
				<path class="st0" d="M2814.1,1670.4h-20.8v-89.5c-7.8,8.2-16.7,14.2-26.9,18v-21.6c5.8-2.2,11.8-6.1,18-11.8
					c6.2-5.6,10.5-12.2,12.9-19.5h16.8V1670.4z"/>
				<path class="st0" d="M2816.7,1670.4h-20.8v-89.5c-7.8,8.2-21.9,14.6-32,18.4l5.1-22c5.8-2.2,11.8-6.1,18-11.8
					c6.2-5.7,6.9-11.8,9.3-19.1l20.4-0.4V1670.4z"/>
				<g>
					<path class="st0" d="M2896.1,1546.5c10.5,0,19,4.7,25.5,14.1c6.5,9.4,9.7,25.8,9.7,49.2c0,23.4-3.2,39.7-9.7,49.1
						c-6.5,9.4-15,14.1-25.4,14.1c-10.5,0-19-4.6-25.5-13.9c-6.5-9.3-9.7-25.8-9.7-49.5c0-23.3,3.2-39.6,9.7-49
						C2877.1,1551.2,2885.6,1546.5,2896.1,1546.5z M2896.1,1566.2c-4.1,0-7.4,2.5-9.8,7.6c-2.4,5.1-3.7,17.1-3.7,36
						c0,18.9,1.2,30.9,3.7,35.9c2.4,5,5.7,7.6,9.8,7.6c4.2,0,7.5-2.5,9.9-7.6c2.4-5.1,3.6-17,3.6-35.9c0-18.9-1.2-30.9-3.6-36
						C2903.6,1568.7,2900.3,1566.2,2896.1,1566.2z"/>
					<path class="st0" d="M2901.2,1546.1c10.5,0,19,4.7,25.5,14.1c6.5,9.4,9.7,25.8,9.7,49.2c0,23.4-3.2,39.7-9.7,49.1
						c-6.5,9.4-15,14.1-25.4,14.1c-10.5,0-19-4.6-25.5-13.9c-6.5-9.3-9.7-25.8-9.7-49.5c0-23.3,3.2-39.6,9.7-49
						C2882.3,1550.8,2890.7,1546.1,2901.2,1546.1z M2901.3,1565.8c-4.1,0-7.4,2.5-9.8,7.6c-2.4,5.1-3.7,17.1-3.7,36
						s1.2,30.9,3.7,35.9c2.4,5,5.7,7.6,9.8,7.6c4.2,0,7.5-2.5,9.9-7.6c2.4-5.1,3.6-17,3.6-35.9c0-18.9-1.2-30.9-3.6-36
						C2908.7,1568.3,2905.4,1565.8,2901.3,1565.8z"/>
				</g>
			</g>
			<g>
				<path class="st0" d="M594.1,1670.4h-20.8v-89.5c-7.8,8.2-16.7,14.2-26.9,18v-21.6c5.8-2.2,11.8-6.1,18-11.8
					c6.2-5.6,10.5-12.2,12.9-19.5h16.8V1670.4z"/>
				<path class="st0" d="M596.7,1670.4h-20.8v-89.5c-7.8,8.2-21.9,14.6-32,18.4l5.1-22c5.8-2.2,11.8-6.1,18-11.8
					c6.2-5.7,6.9-11.8,9.3-19.1l20.4-0.4V1670.4z"/>
				<g>
					<path class="st0" d="M676.1,1546.5c10.5,0,19,4.7,25.5,14.1c6.5,9.4,9.7,25.8,9.7,49.2c0,23.4-3.2,39.7-9.7,49.1
						c-6.5,9.4-15,14.1-25.4,14.1c-10.5,0-19-4.6-25.5-13.9c-6.5-9.3-9.7-25.8-9.7-49.5c0-23.3,3.2-39.6,9.7-49
						C657.1,1551.2,665.6,1546.5,676.1,1546.5z M676.1,1566.2c-4.1,0-7.4,2.5-9.8,7.6c-2.4,5.1-3.7,17.1-3.7,36
						c0,18.9,1.2,30.9,3.7,35.9c2.4,5,5.7,7.6,9.8,7.6c4.2,0,7.5-2.5,9.9-7.6c2.4-5.1,3.6-17,3.6-35.9c0-18.9-1.2-30.9-3.6-36
						C683.6,1568.7,680.3,1566.2,676.1,1566.2z"/>
					<path class="st0" d="M681.2,1546.1c10.5,0,19,4.7,25.5,14.1c6.5,9.4,9.7,25.8,9.7,49.2c0,23.4-3.2,39.7-9.7,49.1
						c-6.5,9.4-15,14.1-25.4,14.1c-10.5,0-19-4.6-25.5-13.9c-6.5-9.3-9.7-25.8-9.7-49.5c0-23.3,3.2-39.6,9.7-49
						C662.3,1550.8,670.7,1546.1,681.2,1546.1z M681.3,1565.8c-4.1,0-7.4,2.5-9.8,7.6c-2.4,5.1-3.7,17.1-3.7,36s1.2,30.9,3.7,35.9
						c2.4,5,5.7,7.6,9.8,7.6c4.2,0,7.5-2.5,9.9-7.6c2.4-5.1,3.6-17,3.6-35.9c0-18.9-1.2-30.9-3.6-36
						C688.7,1568.3,685.4,1565.8,681.3,1565.8z"/>
				</g>
			</g>
			<g>
				<g>
					<path class="st0" d="M2555.8,1650.9v22.1h-72.9c0.8-8.3,3.2-16.3,7.2-23.8c4-7.5,11.8-17.4,23.3-29.6
						c9.1-9.7,14.8-16.3,16.9-19.8c3.1-5,4.7-10,4.7-15.1c0-5.4-1.3-9.5-3.9-12.2c-2.6-2.8-6-4.1-10.2-4.1
						c-9.2,0-14.2,6.5-14.9,19.4l-20.7,0.5c1.3-12.6,5-24.8,11.2-30.7c6.2-5.9,14.5-8.9,24.9-8.9c11.4,0,19.9,3.5,25.7,10.4
						c5.8,6.9,8.7,14.9,8.7,23.8c0,5.1-0.7,10-2.2,14.7c-1.5,4.8-3.7,9.5-6.8,14.4c-3.1,4.8-8.2,11-15.3,18.5
						c-6.7,7-10.9,11.7-12.7,13.9c-1.8,2.3-3.2,4.4-4.3,6.6H2555.8z"/>
					<path class="st0" d="M2560,1650.9v22.1h-72.9c0.8-8.3,3.2-16.3,7.2-23.8c4-7.5,11.8-17.4,23.3-29.6
						c9.1-9.7,14.8-16.3,16.9-19.8c3.1-5,4.7-10,4.7-15.1c0-5.4-1.3-9.5-3.9-12.2c-2.6-2.8-6-4.1-10.2-4.1
						c-9.2,0-14.2,6.5-14.9,19.4l-20.7,0.5c1.3-12.6,5-24.8,11.2-30.7c6.2-5.9,14.5-8.9,24.9-8.9c11.4,0,19.9,3.5,25.7,10.4
						c5.8,6.9,8.7,14.9,8.7,23.8c0,5.1-0.7,10-2.2,14.7c-1.5,4.8-3.7,9.5-6.8,14.4c-3.1,4.8-8.2,11-15.3,18.5
						c-6.7,7-10.9,11.7-12.7,13.9c-1.8,2.3-3.2,4.4-4.3,6.6H2560z"/>
				</g>
				<g>
					<path class="st0" d="M2627.6,1546.5c10.5,0,19,4.7,25.5,14.1c6.5,9.4,9.7,25.8,9.7,49.2c0,23.4-3.2,39.7-9.7,49.1
						c-6.5,9.4-15,14.1-25.4,14.1c-10.5,0-19-4.6-25.5-13.9c-6.5-9.3-9.7-25.8-9.7-49.5c0-23.3,3.2-39.6,9.7-49
						C2608.7,1551.2,2617.2,1546.5,2627.6,1546.5z M2627.7,1566.2c-4.1,0-7.4,2.5-9.8,7.6c-2.4,5.1-3.7,17.1-3.7,36
						s1.2,30.9,3.7,35.9c2.4,5,5.7,7.6,9.8,7.6c4.2,0,7.5-2.5,9.9-7.6c2.4-5.1,3.6-17,3.6-35.9c0-18.9-1.2-30.9-3.6-36
						C2635.1,1568.7,2631.9,1566.2,2627.7,1566.2z"/>
					<path class="st0" d="M2631.9,1546.5c10.5,0,19,4.7,25.5,14.1c6.5,9.4,9.7,25.8,9.7,49.2c0,23.4-3.2,39.7-9.7,49.1
						c-6.5,9.4-15,14.1-25.4,14.1c-10.5,0-19-4.6-25.5-13.9c-6.5-9.3-9.7-25.8-9.7-49.5c0-23.3,3.2-39.6,9.7-49
						C2613,1551.2,2621.5,1546.5,2631.9,1546.5z M2632,1566.2c-4.1,0-7.4,2.5-9.8,7.6c-2.4,5.1-3.7,17.1-3.7,36s1.2,30.9,3.7,35.9
						c2.4,5,5.7,7.6,9.8,7.6c4.2,0,7.5-2.5,9.9-7.6c2.4-5.1,3.6-17,3.6-35.9c0-18.9-1.2-30.9-3.6-36
						C2639.4,1568.7,2636.1,1566.2,2632,1566.2z"/>
				</g>
			</g>
			<g>
				<g>
					<path class="st0" d="M885.8,1650.9v22.1h-72.9c0.8-8.3,3.2-16.3,7.2-23.8c4-7.5,11.8-17.4,23.3-29.6
						c9.1-9.7,14.8-16.3,16.9-19.8c3.1-5,4.7-10,4.7-15.1c0-5.4-1.3-9.5-3.9-12.2c-2.6-2.8-6-4.1-10.2-4.1
						c-9.2,0-14.2,6.5-14.9,19.4l-20.7,0.5c1.3-12.6,5-24.8,11.2-30.7c6.2-5.9,14.5-8.9,24.9-8.9c11.4,0,19.9,3.5,25.7,10.4
						c5.8,6.9,8.7,14.9,8.7,23.8c0,5.1-0.7,10-2.2,14.7c-1.5,4.8-3.7,9.5-6.8,14.4c-3.1,4.8-8.2,11-15.3,18.5
						c-6.7,7-10.9,11.7-12.7,13.9c-1.8,2.3-3.2,4.4-4.3,6.6H885.8z"/>
					<path class="st0" d="M890,1650.9v22.1h-72.9c0.8-8.3,3.2-16.3,7.2-23.8c4-7.5,11.8-17.4,23.3-29.6c9.1-9.7,14.8-16.3,16.9-19.8
						c3.1-5,4.7-10,4.7-15.1c0-5.4-1.3-9.5-3.9-12.2c-2.6-2.8-6-4.1-10.2-4.1c-9.2,0-14.2,6.5-14.9,19.4l-20.7,0.5
						c1.3-12.6,5-24.8,11.2-30.7c6.2-5.9,14.5-8.9,24.9-8.9c11.4,0,19.9,3.5,25.7,10.4c5.8,6.9,8.7,14.9,8.7,23.8
						c0,5.1-0.7,10-2.2,14.7c-1.5,4.8-3.7,9.5-6.8,14.4c-3.1,4.8-8.2,11-15.3,18.5c-6.7,7-10.9,11.7-12.7,13.9
						c-1.8,2.3-3.2,4.4-4.3,6.6H890z"/>
				</g>
				<g>
					<path class="st0" d="M957.6,1546.5c10.5,0,19,4.7,25.5,14.1c6.5,9.4,9.7,25.8,9.7,49.2c0,23.4-3.2,39.7-9.7,49.1
						c-6.5,9.4-15,14.1-25.4,14.1c-10.5,0-19-4.6-25.5-13.9c-6.5-9.3-9.7-25.8-9.7-49.5c0-23.3,3.2-39.6,9.7-49
						C938.7,1551.2,947.2,1546.5,957.6,1546.5z M957.7,1566.2c-4.1,0-7.4,2.5-9.8,7.6c-2.4,5.1-3.7,17.1-3.7,36s1.2,30.9,3.7,35.9
						c2.4,5,5.7,7.6,9.8,7.6c4.2,0,7.5-2.5,9.9-7.6c2.4-5.1,3.6-17,3.6-35.9c0-18.9-1.2-30.9-3.6-36
						C965.1,1568.7,961.9,1566.2,957.7,1566.2z"/>
					<path class="st0" d="M961.9,1546.5c10.5,0,19,4.7,25.5,14.1c6.5,9.4,9.7,25.8,9.7,49.2c0,23.4-3.2,39.7-9.7,49.1
						c-6.5,9.4-15,14.1-25.4,14.1c-10.5,0-19-4.6-25.5-13.9c-6.5-9.3-9.7-25.8-9.7-49.5c0-23.3,3.2-39.6,9.7-49
						C943,1551.2,951.5,1546.5,961.9,1546.5z M962,1566.2c-4.1,0-7.4,2.5-9.8,7.6c-2.4,5.1-3.7,17.1-3.7,36s1.2,30.9,3.7,35.9
						c2.4,5,5.7,7.6,9.8,7.6c4.2,0,7.5-2.5,9.9-7.6c2.4-5.1,3.6-17,3.6-35.9c0-18.9-1.2-30.9-3.6-36
						C969.4,1568.7,966.1,1566.2,962,1566.2z"/>
				</g>
			</g>
			<g>
				<path class="st0" d="M2201,1638.7l20.1,0.3c0.5,5.8,2.3,10.3,5.2,13.4c2.9,3.1,6.3,4.6,10.2,4.6c4.3,0,7.9-1.8,10.9-5.5
					c3-3.7,4.4-8.7,4.4-15.2c0-6-1.4-10.8-4.3-14.2c-2.8-3.4-6.3-5.2-10.3-5.2c-2.7,0-6.1,0.5-9.8,1.7l0.4-20.4
					c5.4,0.1,11.7-0.1,14.9-2.9c3.1-2.8,4.6-6.8,4.6-11.9c0-4.3-1.1-7.6-3.3-10c-2.2-2.4-5.1-3.6-8.6-3.6c-3.5,0-6.5,1.4-9.1,4.2
					s-2.3,6-2.7,11.4l-19.7-0.8c2-11.3,4.5-21.5,10.3-26.6c5.8-5.1,13.1-7.7,21.9-7.7c9.9,0,17.7,3.3,23.5,9.9
					c5.8,6.6,8.7,13.9,8.7,21.9c0,5.4-1.3,10.3-3.9,14.6c-2.6,4.3-6.5,8.1-11.8,11.4c6.1,1.5,11,4.9,14.8,10.1
					c3.8,5.2,5.7,11.7,5.7,19.4c0,11.3-3.6,20.7-10.8,28.1c-7.2,7.4-15.8,11.1-25.7,11.1c-9.5,0-17.6-3.1-24.2-9.4
					C2205.9,1661.1,2202.1,1649.5,2201,1638.7z"/>
				<path class="st0" d="M2201,1638.7l20.1,0.3c0.5,5.8,2.3,10.3,5.2,13.4c2.9,3.1,6.3,4.6,10.2,4.6c4.3,0,7.9-1.8,10.9-5.5
					c3-3.7,4.4-8.7,4.4-15.2c0-6-1.4-10.8-4.3-14.2c-2.8-3.4-6.3-5.2-10.3-5.2c-2.7,0-7.8,0.6-11.5,1.8l0.9-19.4
					c5.4,0.1,13-1.2,16.2-4c3.1-2.8,4.6-6.8,4.6-11.9c0-4.3-1.1-7.6-3.4-10c-2.2-2.4-5.1-3.6-8.6-3.6c-3.5,0-6.5,1.4-9.1,4.2
					c-2.6,2.8-2.2,6-2.7,11.4l-19.7-0.8c2-11.3,4.5-21.5,10.3-26.6c5.8-5.1,13.1-7.7,21.9-7.7c9.9,0,17.7,3.3,23.5,9.9
					c5.8,6.6,8.7,13.9,8.7,21.9c0,5.4-1.3,10.3-3.9,14.6c-2.6,4.3-6.5,8.1-11.8,11.4c6.1,1.5,11,4.9,14.8,10.1
					c3.8,5.2,5.7,11.7,5.7,19.4c0,11.3-3.6,20.7-10.8,28.1c-7.2,7.4-15.8,11.1-25.7,11.1c-9.5,0-17.6-3.1-24.2-9.4
					C2205.9,1661.1,2202,1649.5,2201,1638.7z"/>
				<g>
					<path class="st0" d="M2343.7,1550.2c10.5,0,19,4.7,25.5,14.1c6.5,9.4,9.7,25.8,9.7,49.2c0,23.4-3.2,39.7-9.7,49.1
						c-6.5,9.4-15,14.1-25.4,14.1c-10.5,0-19-4.6-25.5-13.9c-6.5-9.3-9.7-25.8-9.7-49.5c0-23.3,3.2-39.6,9.7-49
						C2324.7,1554.9,2333.2,1550.2,2343.7,1550.2z M2343.7,1569.9c-4.1,0-7.4,2.5-9.8,7.6c-2.4,5.1-3.7,17.1-3.7,36
						s1.2,30.9,3.7,35.9c2.4,5,5.7,7.6,9.8,7.6c4.2,0,7.5-2.5,9.9-7.6c2.4-5.1,3.6-17,3.6-35.9c0-18.9-1.2-30.9-3.6-36
						C2351.2,1572.5,2347.9,1569.9,2343.7,1569.9z"/>
					<path class="st0" d="M2347.1,1550.2c10.5,0,19,4.7,25.5,14.1c6.5,9.4,9.7,25.8,9.7,49.2c0,23.4-3.2,39.7-9.7,49.1
						c-6.5,9.4-15,14.1-25.4,14.1c-10.5,0-19-4.6-25.5-13.9c-6.5-9.3-9.7-25.8-9.7-49.5c0-23.3,3.2-39.6,9.7-49
						C2328.2,1554.9,2336.6,1550.2,2347.1,1550.2z M2347.2,1569.9c-4.1,0-7.4,2.5-9.8,7.6c-2.4,5.1-3.7,17.1-3.7,36
						s1.2,30.9,3.7,35.9c2.4,5,5.7,7.6,9.8,7.6c4.2,0,7.5-2.5,9.9-7.6c2.4-5.1,3.6-17,3.6-35.9c0-18.9-1.2-30.9-3.6-36
						C2354.6,1572.5,2351.3,1569.9,2347.2,1569.9z"/>
				</g>
			</g>
			<g>
				<path class="st0" d="M1092.7,1634.9l20.1,0.3c0.5,5.8,2.3,10.3,5.2,13.4c2.9,3.1,6.3,4.6,10.2,4.6c4.3,0,7.9-1.8,10.9-5.5
					c3-3.7,4.4-8.7,4.4-15.2c0-6-1.4-10.8-4.3-14.2c-2.8-3.4-6.3-5.2-10.3-5.2c-2.7,0-6.1,0.5-9.8,1.7l0.4-20.4
					c5.4,0.1,11.7-0.1,14.9-2.9c3.1-2.8,4.6-6.8,4.6-11.9c0-4.3-1.1-7.6-3.3-10c-2.2-2.4-5.1-3.6-8.6-3.6c-3.5,0-6.5,1.4-9.1,4.2
					s-2.3,6-2.7,11.4l-19.7-0.8c2-11.3,4.5-21.5,10.3-26.6c5.8-5.1,13.1-7.7,21.9-7.7c9.9,0,17.7,3.3,23.5,9.9
					c5.8,6.6,8.7,13.9,8.7,21.9c0,5.4-1.3,10.3-3.9,14.6c-2.6,4.3-6.5,8.1-11.8,11.4c6.1,1.5,11,4.9,14.8,10.1
					c3.8,5.2,5.7,11.7,5.7,19.4c0,11.3-3.6,20.7-10.8,28.1c-7.2,7.4-15.8,11.1-25.7,11.1c-9.5,0-17.6-3.1-24.2-9.4
					C1097.6,1657.3,1093.8,1645.7,1092.7,1634.9z"/>
				<path class="st0" d="M1092.7,1634.9l20.1,0.3c0.5,5.8,2.3,10.3,5.2,13.4c2.9,3.1,6.3,4.6,10.2,4.6c4.3,0,7.9-1.8,10.9-5.5
					c3-3.7,4.4-8.7,4.4-15.2c0-6-1.4-10.8-4.3-14.2c-2.8-3.4-6.3-5.2-10.3-5.2c-2.7,0-7.8,0.6-11.5,1.8l0.9-19.4
					c5.4,0.1,13-1.2,16.2-4c3.1-2.8,4.6-6.8,4.6-11.9c0-4.3-1.1-7.6-3.4-10c-2.2-2.4-5.1-3.6-8.6-3.6c-3.5,0-6.5,1.4-9.1,4.2
					c-2.6,2.8-2.2,6-2.7,11.4l-19.7-0.8c2-11.3,4.5-21.5,10.3-26.6c5.8-5.1,13.1-7.7,21.9-7.7c9.9,0,17.7,3.3,23.5,9.9
					c5.8,6.6,8.7,13.9,8.7,21.9c0,5.4-1.3,10.3-3.9,14.6c-2.6,4.3-6.5,8.1-11.8,11.4c6.1,1.5,11,4.9,14.8,10.1
					c3.8,5.2,5.7,11.7,5.7,19.4c0,11.3-3.6,20.7-10.8,28.1c-7.2,7.4-15.8,11.1-25.7,11.1c-9.5,0-17.6-3.1-24.2-9.4
					C1097.6,1657.3,1093.8,1645.7,1092.7,1634.9z"/>
				<g>
					<path class="st0" d="M1235.4,1546.5c10.5,0,19,4.7,25.5,14.1c6.5,9.4,9.7,25.8,9.7,49.2c0,23.4-3.2,39.7-9.7,49.1
						c-6.5,9.4-15,14.1-25.4,14.1c-10.5,0-19-4.6-25.5-13.9c-6.5-9.3-9.7-25.8-9.7-49.5c0-23.3,3.2-39.6,9.7-49
						C1216.5,1551.2,1225,1546.5,1235.4,1546.5z M1235.5,1566.2c-4.1,0-7.4,2.5-9.8,7.6c-2.4,5.1-3.7,17.1-3.7,36s1.2,30.9,3.7,35.9
						c2.4,5,5.7,7.6,9.8,7.6c4.2,0,7.5-2.5,9.9-7.6c2.4-5.1,3.6-17,3.6-35.9c0-18.9-1.2-30.9-3.6-36
						C1242.9,1568.7,1239.6,1566.2,1235.5,1566.2z"/>
					<path class="st0" d="M1238.9,1546.5c10.5,0,19,4.7,25.5,14.1c6.5,9.4,9.7,25.8,9.7,49.2c0,23.4-3.2,39.7-9.7,49.1
						c-6.5,9.4-15,14.1-25.4,14.1c-10.5,0-19-4.6-25.5-13.9c-6.5-9.3-9.7-25.8-9.7-49.5c0-23.3,3.2-39.6,9.7-49
						C1219.9,1551.2,1228.4,1546.5,1238.9,1546.5z M1238.9,1566.2c-4.1,0-7.4,2.5-9.8,7.6c-2.4,5.1-3.7,17.1-3.7,36
						s1.2,30.9,3.7,35.9c2.4,5,5.7,7.6,9.8,7.6c4.2,0,7.5-2.5,9.9-7.6c2.4-5.1,3.6-17,3.6-35.9c0-18.9-1.2-30.9-3.6-36
						C1246.4,1568.7,1243.1,1566.2,1238.9,1566.2z"/>
				</g>
			</g>
			<g>
				<g>
					<path class="st0" d="M1711.3,1595.1c-6-6.3-13.2-9.5-21.8-9.5c-0.7,0-1.3,0-2,0.1c-0.7-0.1-1.5-0.1-2.3-0.1
						c-3.2,0-6.5,0.6-9.7,1.8l3-18.9h39.1v-22.2h-63.2l-10.3,67.9l4.3-0.1l0,0.1l21.8-0.6c4.2-5.3,7.8-8.2,12.6-8.9
						c3.8,0.5,6.9,2.3,9.5,5.4c3,3.7,4.6,9.5,4.6,17.2c0,8.2-1.5,14.3-4.6,18.3c-2.5,3.3-5.5,5.2-8.8,5.8c-2.8-0.5-5.4-2-7.8-4.4
						c-3-3.1-4.8-7.4-5.3-12.8l-23.7-0.2c0,0,0,0,0,0l-4.3,0c1.3,10.9,8.2,22,14.6,27.9c6.5,5.9,14.5,8.8,24.1,8.8
						c0.7,0,1.5,0,2.2-0.1c0.7,0,1.4,0.1,2.1,0.1c11.9,0,21.1-4.6,27.5-13.7c6.4-9.1,9.6-19.1,9.6-30
						C1722.6,1613.8,1718.9,1603.2,1711.3,1595.1z"/>
				</g>
				<g>
					<path class="st0" d="M1789.2,1544.2c10.5,0,19,4.7,25.5,14.1c6.5,9.4,9.7,25.8,9.7,49.2c0,23.4-3.2,39.7-9.7,49.1
						c-6.5,9.4-15,14.1-25.4,14.1c-10.5,0-19-4.6-25.5-13.9c-6.5-9.3-9.7-25.8-9.7-49.5c0-23.3,3.2-39.6,9.7-49
						C1770.2,1548.9,1778.7,1544.2,1789.2,1544.2z M1789.2,1563.9c-4.1,0-7.4,2.5-9.8,7.6c-2.4,5.1-3.7,17.1-3.7,36
						s1.2,30.9,3.7,35.9c2.4,5,5.7,7.6,9.8,7.6c4.2,0,7.5-2.5,9.9-7.6c2.4-5.1,3.6-17,3.6-35.9c0-18.9-1.2-30.9-3.6-36
						C1796.7,1566.5,1793.4,1563.9,1789.2,1563.9z"/>
					<path class="st0" d="M1792.6,1544.2c10.5,0,19,4.7,25.5,14.1c6.5,9.4,9.7,25.8,9.7,49.2c0,23.4-3.2,39.7-9.7,49.1
						c-6.5,9.4-15,14.1-25.4,14.1c-10.5,0-19-4.6-25.5-13.9c-6.5-9.3-9.7-25.8-9.7-49.5c0-23.3,3.2-39.6,9.7-49
						C1773.7,1548.9,1782.1,1544.2,1792.6,1544.2z M1792.6,1563.9c-4.1,0-7.4,2.5-9.8,7.6c-2.4,5.1-3.7,17.1-3.7,36
						s1.2,30.9,3.7,35.9c2.4,5,5.7,7.6,9.8,7.6c4.2,0,7.5-2.5,9.9-7.6c2.4-5.1,3.6-17,3.6-35.9c0-18.9-1.2-30.9-3.6-36
						C1800.1,1566.5,1796.8,1563.9,1792.6,1563.9z"/>
				</g>
			</g>
			<g>
				<g>
					<path class="st0" d="M2068.4,1546.5c10.5,0,19,4.7,25.5,14.1c6.5,9.4,9.7,25.8,9.7,49.2c0,23.4-3.2,39.7-9.7,49.1
						c-6.5,9.4-15,14.1-25.4,14.1c-10.5,0-19-4.6-25.5-13.9c-6.5-9.3-9.7-25.8-9.7-49.5c0-23.3,3.2-39.6,9.7-49
						C2049.5,1551.2,2058,1546.5,2068.4,1546.5z M2068.5,1566.2c-4.1,0-7.4,2.5-9.8,7.6c-2.4,5.1-3.7,17.1-3.7,36s1.2,30.9,3.7,35.9
						c2.4,5,5.7,7.6,9.8,7.6c4.2,0,7.5-2.5,9.9-7.6c2.4-5.1,3.6-17,3.6-35.9c0-18.9-1.2-30.9-3.6-36
						C2075.9,1568.7,2072.7,1566.2,2068.5,1566.2z"/>
					<path class="st0" d="M2072.7,1546.5c10.5,0,19,4.7,25.5,14.1c6.5,9.4,9.7,25.8,9.7,49.2c0,23.4-3.2,39.7-9.7,49.1
						c-6.5,9.4-15,14.1-25.4,14.1c-10.5,0-19-4.6-25.5-13.9c-6.5-9.3-9.7-25.8-9.7-49.5c0-23.3,3.2-39.6,9.7-49
						C2053.8,1551.2,2062.3,1546.5,2072.7,1546.5z M2072.8,1566.2c-4.1,0-7.4,2.5-9.8,7.6c-2.4,5.1-3.7,17.1-3.7,36
						s1.2,30.9,3.7,35.9c2.4,5,5.7,7.6,9.8,7.6c4.2,0,7.5-2.5,9.9-7.6c2.4-5.1,3.6-17,3.6-35.9c0-18.9-1.2-30.9-3.6-36
						C2080.2,1568.7,2076.9,1566.2,2072.8,1566.2z"/>
				</g>
				<g>
					<path class="st0" d="M1992,1627.1v-78.5h-22.6l-47,78.6v20.8h44.4v24.9h25.3V1648h10.2v-20.9H1992z M1947,1627.1l19.8-33.6
						v33.6H1947z"/>
				</g>
			</g>
			<g>
				<g>
					<path class="st0" d="M1509.6,1543.7c10.5,0,19,4.7,25.5,14.1c6.5,9.4,9.7,25.8,9.7,49.2c0,23.4-3.2,39.7-9.7,49.1
						c-6.5,9.4-15,14.1-25.4,14.1c-10.5,0-19-4.6-25.5-13.9c-6.5-9.3-9.7-25.8-9.7-49.5c0-23.3,3.2-39.6,9.7-49
						C1490.7,1548.4,1499.2,1543.7,1509.6,1543.7z M1509.7,1563.4c-4.1,0-7.4,2.5-9.8,7.6c-2.4,5.1-3.7,17.1-3.7,36
						s1.2,30.9,3.7,35.9c2.4,5,5.7,7.6,9.8,7.6c4.2,0,7.5-2.5,9.9-7.6c2.4-5.1,3.6-17,3.6-35.9c0-18.9-1.2-30.9-3.6-36
						C1517.1,1565.9,1513.8,1563.4,1509.7,1563.4z"/>
					<path class="st0" d="M1513.9,1543.7c10.5,0,19,4.7,25.5,14.1c6.5,9.4,9.7,25.8,9.7,49.2c0,23.4-3.2,39.7-9.7,49.1
						c-6.5,9.4-15,14.1-25.4,14.1c-10.5,0-19-4.6-25.5-13.9c-6.5-9.3-9.7-25.8-9.7-49.5c0-23.3,3.2-39.6,9.7-49
						C1495,1548.4,1503.4,1543.7,1513.9,1543.7z M1514,1563.4c-4.1,0-7.4,2.5-9.8,7.6c-2.4,5.1-3.7,17.1-3.7,36s1.2,30.9,3.7,35.9
						c2.4,5,5.7,7.6,9.8,7.6c4.2,0,7.5-2.5,9.9-7.6c2.4-5.1,3.6-17,3.6-35.9c0-18.9-1.2-30.9-3.6-36
						C1521.4,1565.9,1518.1,1563.4,1514,1563.4z"/>
				</g>
				<g>
					<path class="st0" d="M1433.2,1624.3v-78.5h-22.6l-47,78.6v20.8h44.4v24.9h25.3v-24.9h10.2v-20.9H1433.2z M1388.2,1624.3
						l19.8-33.6v33.6H1388.2z"/>
				</g>
			</g>
		</g>
		<g>
			<path class="st0" d="M681.3,326.8H702v89.5c7.8-8.2,16.7-14.2,26.9-18v21.6c-5.8,2.2-11.8,6.1-18,11.8
				c-6.2,5.6-10.5,12.2-12.9,19.5h-16.8V326.8z"/>
			<path class="st0" d="M678.7,326.7h20.8v89.5c7.8-8.2,21.9-14.6,32-18.4l-5.1,22c-5.8,2.2-11.8,6.1-18,11.8
				c-6.2,5.7-6.9,11.8-9.3,19.1l-20.4,0.4V326.7z"/>
			<g>
				<path class="st0" d="M599.3,450.7c-10.5,0-19-4.7-25.5-14.1c-6.5-9.4-9.7-25.8-9.7-49.2c0-23.4,3.2-39.7,9.7-49.1
					c6.5-9.4,15-14.1,25.4-14.1c10.5,0,19,4.6,25.5,13.9c6.5,9.3,9.7,25.8,9.7,49.5c0,23.3-3.2,39.6-9.7,49
					C618.3,446,609.8,450.7,599.3,450.7z M599.3,431c4.1,0,7.4-2.5,9.8-7.6c2.4-5.1,3.7-17.1,3.7-36c0-18.9-1.2-30.9-3.7-35.9
					c-2.4-5-5.7-7.6-9.8-7.6c-4.2,0-7.5,2.5-9.9,7.6c-2.4,5.1-3.6,17-3.6,35.9c0,18.9,1.2,30.9,3.6,36
					C591.8,428.5,595.1,431,599.3,431z"/>
				<path class="st0" d="M594.2,451.1c-10.5,0-19-4.7-25.5-14.1c-6.5-9.4-9.7-25.8-9.7-49.2c0-23.4,3.2-39.7,9.7-49.1
					c6.5-9.4,15-14.1,25.4-14.1c10.5,0,19,4.6,25.5,13.9c6.5,9.3,9.7,25.8,9.7,49.5c0,23.3-3.2,39.6-9.7,49
					C613.1,446.4,604.7,451.1,594.2,451.1z M594.1,431.4c4.1,0,7.4-2.5,9.8-7.6c2.4-5.1,3.7-17.1,3.7-36c0-18.9-1.2-30.9-3.7-35.9
					c-2.4-5-5.7-7.6-9.8-7.6c-4.2,0-7.5,2.5-9.9,7.6c-2.4,5.1-3.6,17-3.6,35.9c0,18.9,1.2,30.9,3.6,36
					C586.7,428.9,590,431.4,594.1,431.4z"/>
			</g>
		</g>
		<g>
			<path class="st0" d="M2901.3,326.8h20.8v89.5c7.8-8.2,16.7-14.2,26.9-18v21.6c-5.8,2.2-11.8,6.1-18,11.8
				c-6.2,5.6-10.5,12.2-12.9,19.5h-16.8V326.8z"/>
			<path class="st0" d="M2898.7,326.7h20.8v89.5c7.8-8.2,21.9-14.6,32-18.4l-5.1,22c-5.8,2.2-11.8,6.1-18,11.8
				c-6.2,5.7-6.9,11.8-9.3,19.1l-20.4,0.4V326.7z"/>
			<g>
				<path class="st0" d="M2819.3,450.7c-10.5,0-19-4.7-25.5-14.1c-6.5-9.4-9.7-25.8-9.7-49.2c0-23.4,3.2-39.7,9.7-49.1
					c6.5-9.4,15-14.1,25.4-14.1c10.5,0,19,4.6,25.5,13.9c6.5,9.3,9.7,25.8,9.7,49.5c0,23.3-3.2,39.6-9.7,49
					C2838.3,446,2829.8,450.7,2819.3,450.7z M2819.3,431c4.1,0,7.4-2.5,9.8-7.6c2.4-5.1,3.7-17.1,3.7-36c0-18.9-1.2-30.9-3.7-35.9
					c-2.4-5-5.7-7.6-9.8-7.6c-4.2,0-7.5,2.5-9.9,7.6c-2.4,5.1-3.6,17-3.6,35.9c0,18.9,1.2,30.9,3.6,36
					C2811.8,428.5,2815.1,431,2819.3,431z"/>
				<path class="st0" d="M2814.2,451.1c-10.5,0-19-4.7-25.5-14.1c-6.5-9.4-9.7-25.8-9.7-49.2c0-23.4,3.2-39.7,9.7-49.1
					c6.5-9.4,15-14.1,25.4-14.1c10.5,0,19,4.6,25.5,13.9c6.5,9.3,9.7,25.8,9.7,49.5c0,23.3-3.2,39.6-9.7,49
					C2833.1,446.4,2824.7,451.1,2814.2,451.1z M2814.1,431.4c4.1,0,7.4-2.5,9.8-7.6c2.4-5.1,3.7-17.1,3.7-36
					c0-18.9-1.2-30.9-3.7-35.9c-2.4-5-5.7-7.6-9.8-7.6c-4.2,0-7.5,2.5-9.9,7.6c-2.4,5.1-3.6,17-3.6,35.9c0,18.9,1.2,30.9,3.6,36
					C2806.7,428.9,2810,431.4,2814.1,431.4z"/>
			</g>
		</g>
		<g>
			<path class="st0" d="M939.6,346.3v-22.1h72.9c-0.8,8.3-3.2,16.3-7.2,23.8c-4,7.5-11.8,17.4-23.3,29.6
				c-9.1,9.7-14.8,16.3-16.9,19.8c-3.1,5-4.7,10-4.7,15.1c0,5.4,1.3,9.5,3.9,12.2c2.6,2.8,6,4.1,10.2,4.1c9.2,0,14.2-6.5,14.9-19.4
				l20.7-0.5c-1.3,12.6-5,24.8-11.2,30.7c-6.2,5.9-14.5,8.9-24.9,8.9c-11.4,0-19.9-3.5-25.7-10.4c-5.8-6.9-8.7-14.9-8.7-23.8
				c0-5.1,0.7-10,2.2-14.7c1.5-4.8,3.7-9.5,6.8-14.4c3.1-4.8,8.2-11,15.3-18.5c6.7-7,10.9-11.7,12.7-13.9c1.8-2.3,3.2-4.4,4.3-6.6
				H939.6z"/>
			<path class="st0" d="M935.4,346.3v-22.1h72.9c-0.8,8.3-3.2,16.3-7.2,23.8c-4,7.5-11.8,17.4-23.3,29.6
				c-9.1,9.7-14.8,16.3-16.9,19.8c-3.1,5-4.7,10-4.7,15.1c0,5.4,1.3,9.5,3.9,12.2c2.6,2.8,6,4.1,10.2,4.1c9.2,0,14.2-6.5,14.9-19.4
				l20.7-0.5c-1.3,12.6-5,24.8-11.2,30.7c-6.2,5.9-14.5,8.9-24.9,8.9c-11.4,0-19.9-3.5-25.7-10.4c-5.8-6.9-8.7-14.9-8.7-23.8
				c0-5.1,0.7-10,2.2-14.7c1.5-4.8,3.7-9.5,6.8-14.4c3.1-4.8,8.2-11,15.3-18.5c6.7-7,10.9-11.7,12.7-13.9c1.8-2.3,3.2-4.4,4.3-6.6
				H935.4z"/>
		</g>
		<g>
			<path class="st0" d="M878.1,450.7c-10.5,0-19-4.7-25.5-14.1c-6.5-9.4-9.7-25.8-9.7-49.2c0-23.4,3.2-39.7,9.7-49.1
				c6.5-9.4,15-14.1,25.4-14.1c10.5,0,19,4.6,25.5,13.9c6.5,9.3,9.7,25.8,9.7,49.5c0,23.3-3.2,39.6-9.7,49
				C897,446,888.6,450.7,878.1,450.7z M878,431c4.1,0,7.4-2.5,9.8-7.6c2.4-5.1,3.7-17.1,3.7-36c0-18.9-1.2-30.9-3.7-35.9
				c-2.4-5-5.7-7.6-9.8-7.6c-4.2,0-7.5,2.5-9.9,7.6c-2.4,5.1-3.6,17-3.6,35.9c0,18.9,1.2,30.9,3.6,36C870.6,428.5,873.9,431,878,431
				z"/>
			<path class="st0" d="M873.8,450.7c-10.5,0-19-4.7-25.5-14.1c-6.5-9.4-9.7-25.8-9.7-49.2c0-23.4,3.2-39.7,9.7-49.1
				c6.5-9.4,15-14.1,25.4-14.1c10.5,0,19,4.6,25.5,13.9c6.5,9.3,9.7,25.8,9.7,49.5c0,23.3-3.2,39.6-9.7,49
				C892.8,446,884.3,450.7,873.8,450.7z M873.8,431c4.1,0,7.4-2.5,9.8-7.6c2.4-5.1,3.7-17.1,3.7-36c0-18.9-1.2-30.9-3.7-35.9
				c-2.4-5-5.7-7.6-9.8-7.6c-4.2,0-7.5,2.5-9.9,7.6c-2.4,5.1-3.6,17-3.6,35.9c0,18.9,1.2,30.9,3.6,36
				C866.3,428.5,869.6,431,873.8,431z"/>
		</g>
		<g>
			<g>
				<path class="st0" d="M2612.6,346.3v-22.1h72.9c-0.8,8.3-3.2,16.3-7.2,23.8c-4,7.5-11.8,17.4-23.3,29.6
					c-9.1,9.7-14.8,16.3-16.9,19.8c-3.1,5-4.7,10-4.7,15.1c0,5.4,1.3,9.5,3.9,12.2c2.6,2.8,6,4.1,10.2,4.1c9.2,0,14.2-6.5,14.9-19.4
					l20.7-0.5c-1.3,12.6-5,24.8-11.2,30.7c-6.2,5.9-14.5,8.9-24.9,8.9c-11.4,0-19.9-3.5-25.7-10.4c-5.8-6.9-8.7-14.9-8.7-23.8
					c0-5.1,0.7-10,2.2-14.7c1.5-4.8,3.7-9.5,6.8-14.4c3.1-4.8,8.2-11,15.3-18.5c6.7-7,10.9-11.7,12.7-13.9c1.8-2.3,3.2-4.4,4.3-6.6
					H2612.6z"/>
				<path class="st0" d="M2608.4,346.3v-22.1h72.9c-0.8,8.3-3.2,16.3-7.2,23.8c-4,7.5-11.8,17.4-23.3,29.6
					c-9.1,9.7-14.8,16.3-16.9,19.8c-3.1,5-4.7,10-4.7,15.1c0,5.4,1.3,9.5,3.9,12.2c2.6,2.8,6,4.1,10.2,4.1c9.2,0,14.2-6.5,14.9-19.4
					l20.7-0.5c-1.3,12.6-5,24.8-11.2,30.7c-6.2,5.9-14.5,8.9-24.9,8.9c-11.4,0-19.9-3.5-25.7-10.4c-5.8-6.9-8.7-14.9-8.7-23.8
					c0-5.1,0.7-10,2.2-14.7c1.5-4.8,3.7-9.5,6.8-14.4c3.1-4.8,8.2-11,15.3-18.5c6.7-7,10.9-11.7,12.7-13.9c1.8-2.3,3.2-4.4,4.3-6.6
					H2608.4z"/>
			</g>
			<g>
				<path class="st0" d="M2540.8,450.7c-10.5,0-19-4.7-25.5-14.1c-6.5-9.4-9.7-25.8-9.7-49.2c0-23.4,3.2-39.7,9.7-49.1
					c6.5-9.4,15-14.1,25.4-14.1c10.5,0,19,4.6,25.5,13.9c6.5,9.3,9.7,25.8,9.7,49.5c0,23.3-3.2,39.6-9.7,49
					C2559.7,446,2551.2,450.7,2540.8,450.7z M2540.7,431c4.1,0,7.4-2.5,9.8-7.6c2.4-5.1,3.7-17.1,3.7-36c0-18.9-1.2-30.9-3.7-35.9
					c-2.4-5-5.7-7.6-9.8-7.6c-4.2,0-7.5,2.5-9.9,7.6c-2.4,5.1-3.6,17-3.6,35.9c0,18.9,1.2,30.9,3.6,36
					C2533.3,428.5,2536.5,431,2540.7,431z"/>
				<path class="st0" d="M2536.5,450.7c-10.5,0-19-4.7-25.5-14.1c-6.5-9.4-9.7-25.8-9.7-49.2c0-23.4,3.2-39.7,9.7-49.1
					c6.5-9.4,15-14.1,25.4-14.1c10.5,0,19,4.6,25.5,13.9c6.5,9.3,9.7,25.8,9.7,49.5c0,23.3-3.2,39.6-9.7,49
					C2555.4,446,2546.9,450.7,2536.5,450.7z M2536.4,431c4.1,0,7.4-2.5,9.8-7.6c2.4-5.1,3.7-17.1,3.7-36c0-18.9-1.2-30.9-3.7-35.9
					c-2.4-5-5.7-7.6-9.8-7.6c-4.2,0-7.5,2.5-9.9,7.6c-2.4,5.1-3.6,17-3.6,35.9c0,18.9,1.2,30.9,3.6,36
					C2529,428.5,2532.3,431,2536.4,431z"/>
			</g>
		</g>
		<g>
			<path class="st0" d="M1297.4,358.5l-20.1-0.3c-0.5-5.8-2.3-10.3-5.2-13.4c-2.9-3.1-6.3-4.6-10.2-4.6c-4.3,0-7.9,1.8-10.9,5.5
				c-3,3.7-4.4,8.7-4.4,15.2c0,6,1.4,10.8,4.3,14.2c2.8,3.4,6.3,5.2,10.3,5.2c2.7,0,6.1-0.5,9.8-1.7l-0.4,20.4
				c-5.4-0.1-11.7,0.1-14.9,2.9c-3.1,2.8-4.6,6.8-4.6,11.9c0,4.3,1.1,7.6,3.3,10c2.2,2.4,5.1,3.6,8.6,3.6c3.5,0,6.5-1.4,9.1-4.2
				c2.6-2.8,2.3-6,2.7-11.4l19.7,0.8c-2,11.3-4.5,21.5-10.3,26.6c-5.8,5.1-13.1,7.7-21.9,7.7c-9.9,0-17.7-3.3-23.5-9.9
				c-5.8-6.6-8.7-13.9-8.7-21.9c0-5.4,1.3-10.3,3.9-14.6c2.6-4.3,6.5-8.1,11.8-11.4c-6.1-1.5-11-4.9-14.8-10.1
				c-3.8-5.2-5.7-11.7-5.7-19.4c0-11.3,3.6-20.7,10.8-28.1c7.2-7.4,15.8-11.1,25.7-11.1c9.5,0,17.6,3.1,24.2,9.4
				C1292.5,336.1,1296.3,347.7,1297.4,358.5z"/>
			<path class="st0" d="M1297.4,358.5l-20.1-0.3c-0.5-5.8-2.3-10.3-5.2-13.4c-2.9-3.1-6.3-4.6-10.2-4.6c-4.3,0-7.9,1.8-10.9,5.5
				c-3,3.7-4.4,8.7-4.4,15.2c0,6,1.4,10.8,4.3,14.2c2.8,3.4,6.3,5.2,10.3,5.2c2.7,0,7.8-0.6,11.5-1.8l-0.9,19.4
				c-5.4-0.1-13,1.2-16.2,4c-3.1,2.8-4.6,6.8-4.6,11.9c0,4.3,1.1,7.6,3.4,10c2.2,2.4,5.1,3.6,8.6,3.6c3.5,0,6.5-1.4,9.1-4.2
				c2.6-2.8,2.2-6,2.7-11.4l19.7,0.8c-2,11.3-4.5,21.5-10.3,26.6c-5.8,5.1-13.1,7.7-21.9,7.7c-9.9,0-17.7-3.3-23.5-9.9
				c-5.8-6.6-8.7-13.9-8.7-21.9c0-5.4,1.3-10.3,3.9-14.6c2.6-4.3,6.5-8.1,11.8-11.4c-6.1-1.5-11-4.9-14.8-10.1
				c-3.8-5.2-5.7-11.7-5.7-19.4c0-11.3,3.6-20.7,10.8-28.1c7.2-7.4,15.8-11.1,25.7-11.1c9.5,0,17.6,3.1,24.2,9.4
				C1292.5,336.1,1296.3,347.7,1297.4,358.5z"/>
			<g>
				<path class="st0" d="M1154.7,446.9c-10.5,0-19-4.7-25.5-14.1c-6.5-9.4-9.7-25.8-9.7-49.2c0-23.4,3.2-39.7,9.7-49.1
					c6.5-9.4,15-14.1,25.4-14.1c10.5,0,19,4.6,25.5,13.9c6.5,9.3,9.7,25.8,9.7,49.5c0,23.3-3.2,39.6-9.7,49
					C1173.7,442.3,1165.2,446.9,1154.7,446.9z M1154.7,427.2c4.1,0,7.4-2.5,9.8-7.6c2.4-5.1,3.7-17.1,3.7-36
					c0-18.9-1.2-30.9-3.7-35.9c-2.4-5-5.7-7.6-9.8-7.6c-4.2,0-7.5,2.5-9.9,7.6c-2.4,5.1-3.6,17-3.6,35.9c0,18.9,1.2,30.9,3.6,36
					C1147.2,424.7,1150.5,427.2,1154.7,427.2z"/>
				<path class="st0" d="M1151.3,446.9c-10.5,0-19-4.7-25.5-14.1c-6.5-9.4-9.7-25.8-9.7-49.2c0-23.4,3.2-39.7,9.7-49.1
					c6.5-9.4,15-14.1,25.4-14.1c10.5,0,19,4.6,25.5,13.9c6.5,9.3,9.7,25.8,9.7,49.5c0,23.3-3.2,39.6-9.7,49
					C1170.2,442.3,1161.8,446.9,1151.3,446.9z M1151.2,427.2c4.1,0,7.4-2.5,9.8-7.6c2.4-5.1,3.7-17.1,3.7-36
					c0-18.9-1.2-30.9-3.7-35.9c-2.4-5-5.7-7.6-9.8-7.6c-4.2,0-7.5,2.5-9.9,7.6c-2.4,5.1-3.6,17-3.6,35.9c0,18.9,1.2,30.9,3.6,36
					C1143.8,424.7,1147.1,427.2,1151.2,427.2z"/>
			</g>
		</g>
		<g>
			<path class="st0" d="M2405.7,362.3l-20.1-0.3c-0.5-5.8-2.3-10.3-5.2-13.4c-2.9-3.1-6.3-4.6-10.2-4.6c-4.3,0-7.9,1.8-10.9,5.5
				c-3,3.7-4.4,8.7-4.4,15.2c0,6,1.4,10.8,4.3,14.2c2.8,3.4,6.3,5.2,10.3,5.2c2.7,0,6.1-0.5,9.8-1.7l-0.4,20.4
				c-5.4-0.1-11.7,0.1-14.9,2.9c-3.1,2.8-4.6,6.8-4.6,11.9c0,4.3,1.1,7.6,3.3,10c2.2,2.4,5.1,3.6,8.6,3.6c3.5,0,6.5-1.4,9.1-4.2
				c2.6-2.8,2.3-6,2.7-11.4l19.7,0.8c-2,11.3-4.5,21.5-10.3,26.6c-5.8,5.1-13.1,7.7-21.9,7.7c-9.9,0-17.7-3.3-23.5-9.9
				c-5.8-6.6-8.7-13.9-8.7-21.9c0-5.4,1.3-10.3,3.9-14.6c2.6-4.3,6.5-8.1,11.8-11.4c-6.1-1.5-11-4.9-14.8-10.1
				c-3.8-5.2-5.7-11.7-5.7-19.4c0-11.3,3.6-20.7,10.8-28.1c7.2-7.4,15.8-11.1,25.7-11.1c9.5,0,17.6,3.1,24.2,9.4
				C2400.8,339.8,2404.6,351.5,2405.7,362.3z"/>
			<path class="st0" d="M2405.7,362.3l-20.1-0.3c-0.5-5.8-2.3-10.3-5.2-13.4c-2.9-3.1-6.3-4.6-10.2-4.6c-4.3,0-7.9,1.8-10.9,5.5
				c-3,3.7-4.4,8.7-4.4,15.2c0,6,1.4,10.8,4.3,14.2c2.8,3.4,6.3,5.2,10.3,5.2c2.7,0,7.8-0.6,11.5-1.8l-0.9,19.4
				c-5.4-0.1-13,1.2-16.2,4c-3.1,2.8-4.6,6.8-4.6,11.9c0,4.3,1.1,7.6,3.4,10c2.2,2.4,5.1,3.6,8.6,3.6c3.5,0,6.5-1.4,9.1-4.2
				c2.6-2.8,2.2-6,2.7-11.4l19.7,0.8c-2,11.3-4.5,21.5-10.3,26.6c-5.8,5.1-13.1,7.7-21.9,7.7c-9.9,0-17.7-3.3-23.5-9.9
				c-5.8-6.6-8.7-13.9-8.7-21.9c0-5.4,1.3-10.3,3.9-14.6c2.6-4.3,6.5-8.1,11.8-11.4c-6.1-1.5-11-4.9-14.8-10.1
				c-3.8-5.2-5.7-11.7-5.7-19.4c0-11.3,3.6-20.7,10.8-28.1c7.2-7.4,15.8-11.1,25.7-11.1c9.5,0,17.6,3.1,24.2,9.4
				C2400.8,339.8,2404.6,351.5,2405.7,362.3z"/>
			<g>
				<path class="st0" d="M2263,450.7c-10.5,0-19-4.7-25.5-14.1c-6.5-9.4-9.7-25.8-9.7-49.2c0-23.4,3.2-39.7,9.7-49.1
					c6.5-9.4,15-14.1,25.4-14.1c10.5,0,19,4.6,25.5,13.9c6.5,9.3,9.7,25.8,9.7,49.5c0,23.3-3.2,39.6-9.7,49
					C2281.9,446,2273.4,450.7,2263,450.7z M2262.9,431c4.1,0,7.4-2.5,9.8-7.6c2.4-5.1,3.7-17.1,3.7-36c0-18.9-1.2-30.9-3.7-35.9
					c-2.4-5-5.7-7.6-9.8-7.6c-4.2,0-7.5,2.5-9.9,7.6c-2.4,5.1-3.6,17-3.6,35.9c0,18.9,1.2,30.9,3.6,36
					C2255.5,428.5,2258.8,431,2262.9,431z"/>
				<path class="st0" d="M2259.5,450.7c-10.5,0-19-4.7-25.5-14.1c-6.5-9.4-9.7-25.8-9.7-49.2c0-23.4,3.2-39.7,9.7-49.1
					c6.5-9.4,15-14.1,25.4-14.1c10.5,0,19,4.6,25.5,13.9c6.5,9.3,9.7,25.8,9.7,49.5c0,23.3-3.2,39.6-9.7,49
					C2278.5,446,2270,450.7,2259.5,450.7z M2259.5,431c4.1,0,7.4-2.5,9.8-7.6c2.4-5.1,3.7-17.1,3.7-36c0-18.9-1.2-30.9-3.7-35.9
					c-2.4-5-5.7-7.6-9.8-7.6c-4.2,0-7.5,2.5-9.9,7.6c-2.4,5.1-3.6,17-3.6,35.9c0,18.9,1.2,30.9,3.6,36
					C2252,428.5,2255.3,431,2259.5,431z"/>
			</g>
		</g>
		<g>
			<g>
				<path class="st0" d="M1850.8,383l-21.8,0.6c-4.2,5.3-7.8,8.2-12.6,8.9c-3.8-0.5-6.9-2.3-9.5-5.4c-3-3.7-4.6-9.5-4.6-17.2
					c0-8.2,1.5-14.3,4.6-18.3c2.5-3.3,5.5-5.2,8.8-5.7c2.8,0.5,5.4,2,7.8,4.4c3,3.1,4.8,7.4,5.3,12.8l23.7,0.2c0,0,0,0,0,0l4.3,0
					c-1.3-10.9-8.2-22-14.6-27.9c-6.5-5.9-14.5-8.8-24.1-8.8c-0.7,0-1.5,0-2.2,0.1c-0.7,0-1.4-0.1-2.1-0.1
					c-11.9,0-21.1,4.6-27.5,13.7c-6.4,9.1-9.6,19.1-9.6,30c0,13.2,3.8,23.8,11.3,31.9c6,6.3,13.2,9.5,21.8,9.5c0.7,0,1.3,0,2-0.1
					c0.7,0.1,1.5,0.1,2.3,0.1c3.2,0,6.5-0.6,9.7-1.8l-3,18.9h-39.1v22.2h63.2l10.3-67.9l-4.3,0.1L1850.8,383z"/>
			</g>
			<g>
				<path class="st0" d="M1710.2,452.9c-10.5,0-19-4.7-25.5-14.1c-6.5-9.4-9.7-25.8-9.7-49.2c0-23.4,3.2-39.7,9.7-49.1
					c6.5-9.4,15-14.1,25.4-14.1c10.5,0,19,4.6,25.5,13.9c6.5,9.3,9.7,25.8,9.7,49.5c0,23.3-3.2,39.6-9.7,49
					C1729.2,448.3,1720.7,452.9,1710.2,452.9z M1710.2,433.2c4.1,0,7.4-2.5,9.8-7.6c2.4-5.1,3.7-17.1,3.7-36
					c0-18.9-1.2-30.9-3.7-35.9c-2.4-5-5.7-7.6-9.8-7.6c-4.2,0-7.5,2.5-9.9,7.6c-2.4,5.1-3.6,17-3.6,35.9c0,18.9,1.2,30.9,3.6,36
					C1702.7,430.7,1706,433.2,1710.2,433.2z"/>
				<path class="st0" d="M1706.8,452.9c-10.5,0-19-4.7-25.5-14.1c-6.5-9.4-9.7-25.8-9.7-49.2c0-23.4,3.2-39.7,9.7-49.1
					c6.5-9.4,15-14.1,25.4-14.1c10.5,0,19,4.6,25.5,13.9c6.5,9.3,9.7,25.8,9.7,49.5c0,23.3-3.2,39.6-9.7,49
					C1725.7,448.3,1717.3,452.9,1706.8,452.9z M1706.8,433.2c4.1,0,7.4-2.5,9.8-7.6c2.4-5.1,3.7-17.1,3.7-36
					c0-18.9-1.2-30.9-3.7-35.9c-2.4-5-5.7-7.6-9.8-7.6c-4.2,0-7.5,2.5-9.9,7.6c-2.4,5.1-3.6,17-3.6,35.9c0,18.9,1.2,30.9,3.6,36
					C1699.3,430.7,1702.6,433.2,1706.8,433.2z"/>
			</g>
		</g>
		<g>
			<g>
				<path class="st0" d="M1431,450.7c-10.5,0-19-4.7-25.5-14.1c-6.5-9.4-9.7-25.8-9.7-49.2c0-23.4,3.2-39.7,9.7-49.1
					c6.5-9.4,15-14.1,25.4-14.1c10.5,0,19,4.6,25.5,13.9c6.5,9.3,9.7,25.8,9.7,49.5c0,23.3-3.2,39.6-9.7,49
					C1449.9,446,1441.4,450.7,1431,450.7z M1430.9,431c4.1,0,7.4-2.5,9.8-7.6c2.4-5.1,3.7-17.1,3.7-36c0-18.9-1.2-30.9-3.7-35.9
					c-2.4-5-5.7-7.6-9.8-7.6c-4.2,0-7.5,2.5-9.9,7.6c-2.4,5.1-3.6,17-3.6,35.9c0,18.9,1.2,30.9,3.6,36
					C1423.5,428.5,1426.7,431,1430.9,431z"/>
				<path class="st0" d="M1426.7,450.7c-10.5,0-19-4.7-25.5-14.1c-6.5-9.4-9.7-25.8-9.7-49.2c0-23.4,3.2-39.7,9.7-49.1
					c6.5-9.4,15-14.1,25.4-14.1c10.5,0,19,4.6,25.5,13.9c6.5,9.3,9.7,25.8,9.7,49.5c0,23.3-3.2,39.6-9.7,49
					C1445.6,446,1437.1,450.7,1426.7,450.7z M1426.6,431c4.1,0,7.4-2.5,9.8-7.6c2.4-5.1,3.7-17.1,3.7-36c0-18.9-1.2-30.9-3.7-35.9
					c-2.4-5-5.7-7.6-9.8-7.6c-4.2,0-7.5,2.5-9.9,7.6c-2.4,5.1-3.6,17-3.6,35.9c0,18.9,1.2,30.9,3.6,36
					C1419.2,428.5,1422.5,431,1426.6,431z"/>
			</g>
			<g>
				<path class="st0" d="M1532.7,349.2v-24.9h-25.3v24.9h-10.2v20.9h10.2v78.5h22.6l47-78.6v-20.8H1532.7z M1552.4,370.1l-19.8,33.6
					v-33.6H1552.4z"/>
			</g>
		</g>
		<g>
			<g>
				<path class="st0" d="M1985.8,453.5c-10.5,0-19-4.7-25.5-14.1c-6.5-9.4-9.7-25.8-9.7-49.2c0-23.4,3.2-39.7,9.7-49.1
					c6.5-9.4,15-14.1,25.4-14.1c10.5,0,19,4.6,25.5,13.9c6.5,9.3,9.7,25.8,9.7,49.5c0,23.3-3.2,39.6-9.7,49
					C2004.7,448.8,1996.2,453.5,1985.8,453.5z M1985.7,433.8c4.1,0,7.4-2.5,9.8-7.6c2.4-5.1,3.7-17.1,3.7-36
					c0-18.9-1.2-30.9-3.7-35.9c-2.4-5-5.7-7.6-9.8-7.6c-4.2,0-7.5,2.5-9.9,7.6c-2.4,5.1-3.6,17-3.6,35.9c0,18.9,1.2,30.9,3.6,36
					C1978.3,431.3,1981.6,433.8,1985.7,433.8z"/>
				<path class="st0" d="M1981.5,453.5c-10.5,0-19-4.7-25.5-14.1c-6.5-9.4-9.7-25.8-9.7-49.2c0-23.4,3.2-39.7,9.7-49.1
					c6.5-9.4,15-14.1,25.4-14.1c10.5,0,19,4.6,25.5,13.9c6.5,9.3,9.7,25.8,9.7,49.5c0,23.3-3.2,39.6-9.7,49
					C2000.4,448.8,1992,453.5,1981.5,453.5z M1981.4,433.8c4.1,0,7.4-2.5,9.8-7.6c2.4-5.1,3.7-17.1,3.7-36c0-18.9-1.2-30.9-3.7-35.9
					c-2.4-5-5.7-7.6-9.8-7.6c-4.2,0-7.5,2.5-9.9,7.6c-2.4,5.1-3.6,17-3.6,35.9c0,18.9,1.2,30.9,3.6,36
					C1974,431.3,1977.3,433.8,1981.4,433.8z"/>
			</g>
			<g>
				<path class="st0" d="M2087.5,352V327h-25.3V352h-10.2v20.9h10.2v78.5h22.6l47-78.6V352H2087.5z M2107.2,372.9l-19.8,33.6v-33.6
					H2107.2z"/>
			</g>
		</g>
	</g>
</g>
</svg>
