<?xml version="1.0" encoding="utf-8"?>
<!-- Generator: Adobe Illustrator 22.1.0, SVG Export Plug-In . SVG Version: 6.00 Build 0)  -->
<svg version="1.1" id="Layer_1" xmlns="http://www.w3.org/2000/svg" xmlns:xlink="http://www.w3.org/1999/xlink" x="0px" y="0px"
	 viewBox="0 0 1023 461" style="enable-background:new 0 0 1023 461;" xml:space="preserve">
<style type="text/css">
	.st0{fill:#FFFFFF;}
</style>
<g>
	<path class="st0" d="M56.8,111.7c0,39.2,28,71.9,65.1,79.3v11.7h1v-11.5c4.8,0.9,9.7,1.4,14.7,1.4c5,0,9.8-0.5,14.5-1.3v11.4h1V191
		c37.2-7.3,65.3-40,65.3-79.3s-28.1-72.1-65.3-79.3V20.8h-1v11.4c-4.7-0.9-9.5-1.3-14.5-1.3c-5,0-10,0.5-14.7,1.4V20.8h-1v11.7
		C84.9,39.8,56.8,72.5,56.8,111.7z M137.7,31.9c44,0,79.8,35.8,79.8,79.8c0,44-35.8,79.8-79.8,79.8c-44,0-79.8-35.8-79.8-79.8
		C57.8,67.7,93.7,31.9,137.7,31.9z"/>
	<polygon class="st0" points="122.9,91.6 121.9,91.6 121.9,107.1 101.4,107.1 101.4,108.1 122.9,108.1 	"/>
	<polygon class="st0" points="173.7,107.1 153.2,107.1 153.2,91.6 152.2,91.6 152.2,108.1 173.7,108.1 	"/>
	<polygon class="st0" points="153.2,116.4 173.7,116.4 173.7,115.4 152.2,115.4 152.2,131.8 153.2,131.8 	"/>
	<polygon class="st0" points="121.9,131.8 122.9,131.8 122.9,115.4 101.4,115.4 101.4,116.4 121.9,116.4 	"/>
	<circle class="st0" cx="137.7" cy="111.7" r="5.3"/>
	<path class="st0" d="M152.7,269.6h0.5V258h-1v11.4c-4.7-0.9-9.5-1.3-14.5-1.3c-5,0-10,0.5-14.7,1.4V258h-1v11.5h0.7
		c-37.4,7.1-65.8,40-65.8,79.4c0,39.2,28,71.9,65.1,79.3v11.7h1v-11.5c4.8,0.9,9.7,1.4,14.7,1.4c5,0,9.8-0.5,14.5-1.3v11.4h1v-11.6
		c37.2-7.3,65.3-40,65.3-79.3C218.5,309.5,190.1,276.6,152.7,269.6z M137.7,428.8c-44,0-79.8-35.8-79.8-79.8
		c0-44,35.8-79.8,79.8-79.8s79.8,35.8,79.8,79.8C217.5,393,181.7,428.8,137.7,428.8z"/>
	<polygon class="st0" points="121.9,344.3 101.4,344.3 101.4,345.3 122.9,345.3 122.9,328.9 121.9,328.9 	"/>
	<polygon class="st0" points="153.2,328.9 152.2,328.9 152.2,345.3 173.7,345.3 173.7,344.3 153.2,344.3 	"/>
	<polygon class="st0" points="152.2,369 153.2,369 153.2,353.6 173.7,353.6 173.7,352.6 152.2,352.6 	"/>
	<polygon class="st0" points="101.4,353.6 121.9,353.6 121.9,369 122.9,369 122.9,352.6 101.4,352.6 	"/>
	<circle class="st0" cx="137.7" cy="349" r="5.3"/>
	<path class="st0" d="M901.2,32.4V20.8h-1v11.4c-4.7-0.9-9.5-1.3-14.5-1.3c-5,0-9.8,0.5-14.5,1.3V20.8h-1v11.6
		c-37.2,7.3-65.3,40-65.3,79.3s28.1,72.1,65.3,79.3v11.6h1v-11.4c4.7,0.9,9.5,1.3,14.5,1.3c5,0,9.8-0.5,14.5-1.3v11.4h1V191
		c37.2-7.3,65.3-40,65.3-79.3S938.3,39.7,901.2,32.4z M885.7,191.5c-44,0-79.8-35.8-79.8-79.8c0-44,35.8-79.8,79.8-79.8
		s79.8,35.8,79.8,79.8C965.5,155.7,929.7,191.5,885.7,191.5z"/>
	<polygon class="st0" points="870.2,107.1 849.7,107.1 849.7,108.1 871.2,108.1 871.2,91.6 870.2,91.6 	"/>
	<polygon class="st0" points="901.2,91.6 900.2,91.6 900.2,108.1 921.9,108.1 921.9,107.1 901.2,107.1 	"/>
	<polygon class="st0" points="900.2,131.8 901.2,131.8 901.2,116.4 921.9,116.4 921.9,115.4 900.2,115.4 	"/>
	<polygon class="st0" points="849.7,116.4 870.2,116.4 870.2,131.8 871.2,131.8 871.2,115.4 849.7,115.4 	"/>
	<circle class="st0" cx="885.7" cy="111.7" r="5.3"/>
	<path class="st0" d="M900.7,269.6h0.5V258h-1v11.4c-4.7-0.9-9.5-1.3-14.5-1.3c-5,0-9.8,0.5-14.5,1.3V258h-1v11.5h0.5
		c-37.4,7.1-65.8,40-65.8,79.4c0,39.3,28.1,72.1,65.3,79.3v11.6h1v-11.4c4.7,0.9,9.5,1.3,14.5,1.3c5,0,9.8-0.5,14.5-1.3v11.4h1
		v-11.6c37.2-7.3,65.3-40,65.3-79.3C966.5,309.5,938.1,276.6,900.7,269.6z M885.7,428.8c-44,0-79.8-35.8-79.8-79.8
		c0-44,35.8-79.8,79.8-79.8c44,0,79.8,35.8,79.8,79.8C965.5,393,929.7,428.8,885.7,428.8z"/>
	<polygon class="st0" points="870.2,344.3 849.7,344.3 849.7,345.3 871.2,345.3 871.2,328.9 870.2,328.9 	"/>
	<polygon class="st0" points="901.2,328.9 900.2,328.9 900.2,345.3 921.9,345.3 921.9,344.3 901.2,344.3 	"/>
	<polygon class="st0" points="900.2,369 901.2,369 901.2,353.6 921.9,353.6 921.9,352.6 900.2,352.6 	"/>
	<polygon class="st0" points="849.7,353.6 870.2,353.6 870.2,369 871.2,369 871.2,352.6 849.7,352.6 	"/>
	<circle class="st0" cx="885.7" cy="349" r="5.3"/>
	<path class="st0" d="M919.8,0.2H103.3c-29.5,0-56.2,12.5-74.9,32.6H28v0.4C11.1,51.5,0.8,75.9,0.8,102.7v255
		c0,26.8,10.3,51.2,27.2,69.5v0.4h0.4c18.7,20,45.4,32.6,74.9,32.6H920c56.4,0,102.3-46,102.3-102.5v-255
		C1022.3,46.2,976.3,0.2,919.8,0.2z M28,425.8c-16.3-18-26.2-41.9-26.2-68v-61.5l26.2-10V425.8z M28,247.6H14.2
		c-2.3,0-4.1-1.8-4.1-4.1V220c0-2.3,1.8-4.1,4.1-4.1H28V247.6z M28,214.8H14.2c-2.8,0-5.1,2.3-5.1,5.1v23.5v0.2
		c0,2.8,2.3,5.1,5.1,5.1H28v36.3l-26.2,10V165.5l26.2,10V214.8z M28,174.2l-26.2-10v-61.5c0-26.1,9.9-50,26.2-68V174.2z
		 M995.3,212.8h13.8c2.3,0,4.1,1.8,4.1,4.1v23.5c0,2.3-1.8,4.1-4.1,4.1h-13.8V212.8z M29,210.5h20c5.6,0,10.1,4.5,10.1,10.1V243
		c0,5.6-4.5,10.1-10.1,10.1H29V210.5z M369.3,459.2H103.3c-29.3,0-55.7-12.5-74.3-32.4V254.1h20c6.1,0,11.1-5,11.1-11.1v-22.4
		c0-6.1-5-11.1-11.1-11.1H29V33.6C47.5,13.7,74,1.2,103.3,1.2h266.1V459.2z M511,459.2h-44.5c0.3-24.4,20-44.3,44.5-44.7V459.2z
		 M511,413.6c-25,0.4-45.2,20.7-45.5,45.7h-95.3V1.2H511v146.5c-45.3,0.3-82.2,37.2-82.2,82.6c0,45.4,36.8,82.4,82.2,82.6V413.6z
		 M511,312c-44.8-0.3-81.2-36.8-81.2-81.6s36.4-81.4,81.2-81.6v72.4h1v-72.4c44.8,0.3,81.2,36.8,81.2,81.6S556.8,311.7,512,312
		v-72.6h-1V312z M512,459.2v-44.7c24.6,0.1,44.6,20.1,44.9,44.7H512z M653,459.2h-95c-0.3-25.2-20.7-45.5-45.9-45.7V313
		c45.4-0.3,82.2-37.2,82.2-82.6c0-45.4-36.8-82.4-82.2-82.6V1.2H653V459.2z M974.3,206.5c-6.1,0-11.1,5-11.1,11.1v22.2
		c0,6.1,5,11.1,11.1,11.1h20v174.9h0.8c-18.5,20.5-45.3,33.4-75.1,33.4H654V1.2h265.8c29.9,0,56.8,13,75.4,33.7h-0.9v171.7H974.3z
		 M994.3,207.5v42.4h-20c-5.6,0-10.1-4.5-10.1-10.1v-22.2c0-5.6,4.5-10.1,10.1-10.1H994.3z M1021.3,357.7c0,26.1-9.8,49.8-26,67.8
		V286.2l26,9.9V357.7z M1021.3,295.1l-26-9.9v-39.5h13.8c2.8,0,5.1-2.3,5.1-5.1V217c0-2.8-2.3-5.1-5.1-5.1h-13.8v-36.5l26-9.9V295.1
		z M1021.3,164.3l-26,9.9V34.9c16.2,18,26,41.7,26,67.8V164.3z"/>
	<circle class="st0" cx="511.5" cy="230.3" r="5.3"/>
</g>
</svg>
