<svg xmlns="http://www.w3.org/2000/svg" viewBox="0 0 243.3 50.9"><defs><style>.cls-1{fill:#c80a26;}.cls-2{fill:#fff;}.cls-3{fill:#0e46a1;}.cls-4{fill:#0b3c84;}</style></defs><title>Asset 47</title><g id="Layer_2" data-name="Layer 2"><g id="Layer_2-2" data-name="Layer 2"><polygon class="cls-1" points="109.7 37.1 0 37.1 6.5 0 116.2 0 109.7 37.1"/><path class="cls-2" d="M39.4,6.8,30.2,30.4H26.6L27,15.1h-.1L20.7,30.4H17.1L18.2,6.8h4.1L21,21.8h0l6.3-15h3L30,22.2h.1L35.3,6.8Z"/><path class="cls-2" d="M35.3,30.4,46.4,6.8h3.2l.9,23.6H46.6V25.3H41.4l-2.3,5.1Zm11.3-8.2V13.6h-.1l-3.8,8.6Z"/><path class="cls-2" d="M54.3,30.4,58.8,10H54.3L55,6.8H67.7L67,10H62.6L58.2,30.4Z"/><path class="cls-2" d="M79.5,23.7l-.4,1.4a4,4,0,0,1-.9,2.1A5.8,5.8,0,0,1,76.5,29a6.6,6.6,0,0,1-2.2,1.2,6.7,6.7,0,0,1-2.4.4l-2.2-.2a4,4,0,0,1-1.8-1,4.3,4.3,0,0,1-1.2-1.7,6.1,6.1,0,0,1,0-2.7l2.9-12.9a4.7,4.7,0,0,1,.9-2.2,6.5,6.5,0,0,1,1.6-1.7A8.4,8.4,0,0,1,74.4,7,10.9,10.9,0,0,1,77,6.6a5,5,0,0,1,4.1,1.6A5.1,5.1,0,0,1,82,10a8.8,8.8,0,0,1,0,2.3l-.3,1.3H77.8l.3-1.1a2.7,2.7,0,0,0-.3-1.8,1.7,1.7,0,0,0-1.6-.7,2.5,2.5,0,0,0-2,.8,3.4,3.4,0,0,0-.9,1.9L70.6,24.8a2.3,2.3,0,0,0,.2,1.7c.2.5.8.7,1.6.7h.9l.9-.4a2.3,2.3,0,0,0,.7-.7,3.3,3.3,0,0,0,.5-1.2l.2-1.1Z"/><path class="cls-2" d="M82.6,30.4,87.8,6.8h3.8L89.4,16.9h4.8L96.4,6.8h3.8L95.1,30.4H91.2l2.3-10.5H88.8L86.5,30.4Z"/><polygon class="cls-3" points="237 37.1 109.3 37.1 115.7 0 243.3 0 237 37.1"/><path class="cls-1" d="M186.7,39.2h1.5l-2,8.8h2.9l-.3,1.5h-4.4Z"/><path class="cls-1" d="M192.9,39.2h1.5l-2.2,10.3h-1.5Z"/><path class="cls-1" d="M197.3,49.5H196l.2-10.3h1.5l-.4,7.2h.1l2.7-7.2h1.6Z"/><path class="cls-1" d="M203.4,39.2h4.4l-.3,1.4h-2.9l-.7,3h2.6l-.3,1.4h-2.6l-.6,3h2.9l-.3,1.5h-4.4Z"/><polygon class="cls-3" points="209.3 50.9 236.9 37.1 212.5 37.1 209.3 50.9"/><polygon class="cls-4" points="212.5 37.1 236.9 37.1 234.4 38.4 212.2 38.4 212.5 37.1"/><polygon class="cls-4" points="115.4 0 117.1 0 110.9 37.1 109 37.1 115.4 0"/><path class="cls-2" d="M130.5,6.6h6a7.4,7.4,0,0,1,3.2.5,6,6,0,0,1,2,1.4,5,5,0,0,1,.8,2,9.7,9.7,0,0,1-.1,2.4l-.2.9a18.9,18.9,0,0,1-.6,1.8,8.3,8.3,0,0,1-.8,1.2l-1.1.9-1.3.8a3,3,0,0,1,1.7,1.8,5.3,5.3,0,0,1,0,3.1l-.3,1.4a8.2,8.2,0,0,1-2.9,5.1c-1.4,1.2-3.5,1.7-6.1,1.7h-5.6ZM130,28.1h1.8a5.4,5.4,0,0,0,2-.4,3.6,3.6,0,0,0,1.2-.8,3.9,3.9,0,0,0,.8-1.4c.1-.5.3-1.1.4-1.7a11.5,11.5,0,0,0,.2-1.6,1.6,1.6,0,0,0-.2-1.2,1.6,1.6,0,0,0-.9-.7,4.2,4.2,0,0,0-1.8-.3h-1.8Zm2.4-11.2h1.9a4,4,0,0,0,2.9-.9,4.8,4.8,0,0,0,1.2-2.7,2.9,2.9,0,0,0-.2-2.5c-.4-.6-1.3-.8-2.6-.8h-1.7Z"/><path class="cls-2" d="M147.6,12.5a11.1,11.1,0,0,1,1.2-2.7,7.2,7.2,0,0,1,2-1.9,13.4,13.4,0,0,1,2.4-1.2l2.6-.3a9.9,9.9,0,0,1,2.4.3,6.2,6.2,0,0,1,1.9,1.2,4.1,4.1,0,0,1,1.2,1.9,6.1,6.1,0,0,1,0,2.7l-2.8,13.2a5.6,5.6,0,0,1-1.2,2.7,6.9,6.9,0,0,1-1.9,1.9,11.5,11.5,0,0,1-2.5,1.2,11.8,11.8,0,0,1-2.5.4,9.3,9.3,0,0,1-2.4-.4,6.7,6.7,0,0,1-2-1.2,4,4,0,0,1-1.1-1.9,4.8,4.8,0,0,1-.1-2.7Zm1.3,13.2a2.2,2.2,0,0,0,.4,2,2.8,2.8,0,0,0,1.8.6,3.7,3.7,0,0,0,2.1-.6,3.4,3.4,0,0,0,1.2-2l2.8-13.2c.2-.9.1-1.5-.4-1.9A2.4,2.4,0,0,0,155,10a3.6,3.6,0,0,0-2,.6,2.7,2.7,0,0,0-1.3,1.9Z"/><path class="cls-2" d="M169,18.5,166.2,6.6h4.3L172,14l4.7-7.4H181l-7.9,11.9,3.1,13.1h-4.4l-1.7-8.4-5.3,8.4h-4.3Z"/><path class="cls-2" d="M185,6.6h4.1l-5.3,25h-4.1Z"/><path class="cls-2" d="M194.5,6.6h3.9l3,15.1h.1l3.2-15.1h4l-5.3,25h-3.8l-3.1-15h0l-3.2,15h-4.1Z"/><path class="cls-2" d="M212.5,12.5a6.6,6.6,0,0,1,1.2-2.7,6.1,6.1,0,0,1,2-1.9,9,9,0,0,1,2.4-1.2l2.5-.3a8.8,8.8,0,0,1,2.4.3,6.7,6.7,0,0,1,2,1.2,5.2,5.2,0,0,1,1.2,1.9,6.1,6.1,0,0,1,0,2.7l-.3,1.3h-4.1l.3-1.3c.2-.9.1-1.5-.4-1.9a2.8,2.8,0,0,0-1.8-.6,3.7,3.7,0,0,0-2.1.6,2.9,2.9,0,0,0-1.2,1.9l-2.8,13.2a1.9,1.9,0,0,0,.4,2,2.8,2.8,0,0,0,1.8.6,4.2,4.2,0,0,0,2.1-.6,3.4,3.4,0,0,0,1.2-2l1-4.7h-3.2l.6-3.2H225l-1.6,7.9a5.6,5.6,0,0,1-1.2,2.7,7.2,7.2,0,0,1-2,1.9,10.8,10.8,0,0,1-2.4,1.2,11.7,11.7,0,0,1-2.6.4,8.5,8.5,0,0,1-2.3-.4,6.7,6.7,0,0,1-2-1.2,5.2,5.2,0,0,1-1.2-1.9,6.1,6.1,0,0,1,0-2.7Z"/></g></g></svg>