<!DOCTYPE svg PUBLIC "-//W3C//DTD SVG 1.1//EN" "http://www.w3.org/Graphics/SVG/1.1/DTD/svg11.dtd">
<!-- Uploaded to: SVG Repo, www.svgrepo.com, Transformed by: SVG Repo Mixer Tools -->
<svg height="64px" width="64px" version="1.1" id="Layer_1" xmlns="http://www.w3.org/2000/svg" xmlns:xlink="http://www.w3.org/1999/xlink" viewBox="0 0 496 496" xml:space="preserve" fill="#000000">
<g id="SVGRepo_bgCarrier" stroke-width="0"/>
<g id="SVGRepo_tracerCarrier" stroke-linecap="round" stroke-linejoin="round"/>
<g id="SVGRepo_iconCarrier"> <path style="fill:#78A898;" d="M378.4,23.4c-4.8-4.8-12-4.8-16.8,0L248,137.8L133.6,23.4c-4.8-4.8-12-4.8-16.8,0s-4.8,12,0,16.8 l114.4,114.4L180.8,205c-4.8,4.8-4.8,12,0,16.8c2.4,2.4,5.6,3.2,8,3.2s5.6-0.8,8-3.2l50.4-50.4l50.4,50.4c2.4,2.4,5.6,3.2,8,3.2 s5.6-0.8,8-3.2c4.8-4.8,4.8-12,0-16.8l-50.4-50.4L378.4,40.2C383.2,35.4,383.2,28.2,378.4,23.4z"/> <g> <path style="fill:#2DB700;" d="M85.6,461.8c0,8-6.4,14.4-14.4,14.4l0,0c-8,0-14.4-6.4-14.4-14.4v-19.2c0-8,6.4-14.4,14.4-14.4l0,0 c8,0,14.4,6.4,14.4,14.4V461.8z"/> <path style="fill:#2DB700;" d="M438.4,461.8c0,8-6.4,14.4-14.4,14.4l0,0c-8,0-14.4-6.4-14.4-14.4v-19.2c0-8,6.4-14.4,14.4-14.4l0,0 c8,0,14.4,6.4,14.4,14.4V461.8z"/> </g> <path style="fill:#51CE00;" d="M496,423.4c0,16.8-14.4,31.2-32,31.2H32c-17.6,0-32-13.6-32-31.2v-256c0-16.8,14.4-31.2,32-31.2h432 c17.6,0,32,13.6,32,31.2V423.4z"/> <path style="fill:#62897B;" d="M279.2,106.6L248,137.8l-31.2-31.2H184l47.2,47.2l-50.4,50.4c-4.8,4.8-4.8,12,0,16.8 c2.4,2.4,5.6,3.2,8,3.2s5.6-0.8,8-3.2l50.4-50.4l50.4,50.4c2.4,2.4,5.6,3.2,8,3.2s5.6-0.8,8-3.2c4.8-4.8,4.8-12,0-16.8l-50.4-50.4 l47.2-47.2L279.2,106.6L279.2,106.6z"/> <path style="fill:#51CE00;" d="M496,413.8c0,16.8-14.4,31.2-32,31.2H32c-17.6,0-32-13.6-32-31.2v-256c0-16.8,14.4-31.2,32-31.2h432 c17.6,0,32,13.6,32,31.2V413.8z"/> <path style="fill:#2DB700;" d="M0,167.4c0-16.8,14.4-31.2,32-31.2h432c17.6,0,32,13.6,32,31.2v256c0,16.8-14.4,31.2-32,31.2"/> <path style="fill:#10A504;" d="M368,333.8c0,49.6-40.8,90.4-90.4,90.4h-144c-50.4,0-91.2-40.8-91.2-91.2v-60.8 c0-50.4,40.8-91.2,91.2-91.2h144c50.4,0,91.2,40.8,91.2,91.2v61.6H368z"/> <path style="fill:#353F3E;" d="M368,325.8c0,50.4-40.8,91.2-91.2,91.2h-144c-50.4,0-91.2-40.8-91.2-91.2V265 c0-50.4,40.8-91.2,91.2-91.2h144c50.4,0,91.2,40.8,91.2,91.2V325.8z"/> <path style="fill:#101615;" d="M133.6,174.6h144c50.4,0,91.2,40.8,91.2,91.2v60.8c0,50.4-40.8,91.2-91.2,91.2"/> <g> <path style="fill:#10A504;" d="M468,303.4c0,3.2-2.4,4.8-4.8,4.8h-58.4c-3.2,0-4.8-2.4-4.8-4.8l0,0c0-3.2,2.4-4.8,4.8-4.8h58.4 C465.6,297.8,468,300.2,468,303.4L468,303.4z"/> <path style="fill:#10A504;" d="M468,328.2c0,3.2-2.4,4.8-4.8,4.8h-58.4c-3.2,0-4.8-2.4-4.8-4.8l0,0c0-3.2,2.4-4.8,4.8-4.8h58.4 C465.6,323.4,468,325.8,468,328.2L468,328.2z"/> <path style="fill:#10A504;" d="M468,353.8c0,3.2-2.4,4.8-4.8,4.8h-58.4c-3.2,0-4.8-2.4-4.8-4.8l0,0c0-3.2,2.4-4.8,4.8-4.8h58.4 C465.6,348.2,468,350.6,468,353.8L468,353.8z"/> <path style="fill:#10A504;" d="M468,378.6c0,3.2-2.4,4.8-4.8,4.8h-58.4c-3.2,0-4.8-2.4-4.8-4.8l0,0c0-3.2,2.4-4.8,4.8-4.8h58.4 C465.6,373.8,468,376.2,468,378.6L468,378.6z"/> </g> <g> <path style="fill:#353F3E;" d="M468,297.8c0,3.2-2.4,4.8-4.8,4.8h-58.4c-3.2,0-4.8-2.4-4.8-4.8l0,0c0-3.2,2.4-4.8,4.8-4.8h58.4 C465.6,293,468,295.4,468,297.8L468,297.8z"/> <path style="fill:#353F3E;" d="M468,323.4c0,3.2-2.4,4.8-4.8,4.8h-58.4c-3.2,0-4.8-2.4-4.8-4.8l0,0c0-3.2,2.4-4.8,4.8-4.8h58.4 C465.6,317.8,468,320.2,468,323.4L468,323.4z"/> <path style="fill:#353F3E;" d="M468,348.2c0,3.2-2.4,4.8-4.8,4.8h-58.4c-3.2,0-4.8-2.4-4.8-4.8l0,0c0-3.2,2.4-4.8,4.8-4.8h58.4 C465.6,343.4,468,345.8,468,348.2L468,348.2z"/> <path style="fill:#353F3E;" d="M468,373.8c0,3.2-2.4,4.8-4.8,4.8h-58.4c-3.2,0-4.8-2.4-4.8-4.8l0,0c0-3.2,2.4-4.8,4.8-4.8h58.4 C465.6,368.2,468,370.6,468,373.8L468,373.8z"/> </g> <circle style="fill:#10A504;" cx="434.4" cy="231.4" r="37.6"/> <circle style="fill:#95C1B6;" cx="434.4" cy="220.2" r="37.6"/> <path style="fill:#86B2A5;" d="M408,193.8c14.4-14.4,38.4-14.4,52.8,0s14.4,38.4,0,52.8"/> <circle style="fill:#78A898;" cx="434.4" cy="220.2" r="24"/> <path style="fill:#86B2A5;" d="M416.8,237c-9.6-9.6-9.6-24.8,0-34.4s24.8-9.6,34.4,0"/> </g>
</svg>